<svg width="1920" height="920" version="1.1" xmlns="http://www.w3.org/2000/svg" desc="Created with imagetracer.js version 1.2.6" ><path fill="rgb(171,202,231)" stroke="rgb(171,202,231)" stroke-width="1" opacity="1" d="M 1138.5 8 L 1139 25.5 L 1138 25.5 L 1138.5 8 Z " /><path fill="rgb(171,202,231)" stroke="rgb(171,202,231)" stroke-width="1" opacity="1" d="M 1139.5 37 L 1140 50.5 L 1139 50.5 L 1139.5 37 Z " /><path fill="rgb(171,202,231)" stroke="rgb(171,202,231)" stroke-width="1" opacity="1" d="M 1140.5 60 L 1141 71.5 L 1140 71.5 L 1140.5 60 Z " /><path fill="rgb(171,202,231)" stroke="rgb(171,202,231)" stroke-width="1" opacity="1" d="M 1141.5 79 L 1142 87.5 L 1141 87.5 L 1141.5 79 Z " /><path fill="rgb(171,202,231)" stroke="rgb(171,202,231)" stroke-width="1" opacity="1" d="M 1142.5 94 L 1143 100.5 L 1142 100.5 L 1142.5 94 Z " /><path fill="rgb(171,202,231)" stroke="rgb(171,202,231)" stroke-width="1" opacity="1" d="M 1143.5 106 L 1144 112.5 L 1143 112.5 L 1143.5 106 Z " /><path fill="rgb(171,202,231)" stroke="rgb(171,202,231)" stroke-width="1" opacity="1" d="M 1144.5 117 L 1145 122.5 L 1144 122.5 L 1144.5 117 Z " /><path fill="rgb(171,202,231)" stroke="rgb(171,202,231)" stroke-width="1" opacity="1" d="M 1145.5 127 L 1146 131.5 L 1145 131.5 L 1145.5 127 Z " /><path fill="rgb(171,202,231)" stroke="rgb(171,202,231)" stroke-width="1" opacity="1" d="M 1146.5 136 L 1147 139.5 L 1146 139.5 L 1146.5 136 Z " /><path fill="rgb(171,202,231)" stroke="rgb(171,202,231)" stroke-width="1" opacity="1" d="M 0.5 138 L 3.5 142 L 0.5 138 Z " /><path fill="rgb(171,202,231)" stroke="rgb(171,202,231)" stroke-width="1" opacity="1" d="M 1147.5 143 L 1148 146.5 L 1147 146.5 L 1147.5 143 Z " /><path fill="rgb(171,202,231)" stroke="rgb(171,202,231)" stroke-width="1" opacity="1" d="M 11.5 148 L 20.5 158 L 11.5 148 Z " /><path fill="rgb(171,202,231)" stroke="rgb(171,202,231)" stroke-width="1" opacity="1" d="M 1148.5 150 L 1149 153.5 L 1148 153.5 L 1148.5 150 Z " /><path fill="rgb(171,202,231)" stroke="rgb(171,202,231)" stroke-width="1" opacity="1" d="M 1149.5 157 L 1150 160.5 L 1149 160.5 L 1149.5 157 Z " /><path fill="rgb(171,202,231)" stroke="rgb(171,202,231)" stroke-width="1" opacity="1" d="M 26.5 162 L 34.5 171 L 26.5 162 Z " /><path fill="rgb(171,202,231)" stroke="rgb(171,202,231)" stroke-width="1" opacity="1" d="M 1150.5 163 L 1151 166.5 L 1150 166.5 L 1150.5 163 Z " /><path fill="rgb(171,202,231)" stroke="rgb(171,202,231)" stroke-width="1" opacity="1" d="M 1151.5 169 L 1152 171.5 L 1151 171.5 L 1151.5 169 Z " /><path fill="rgb(171,202,231)" stroke="rgb(171,202,231)" stroke-width="1" opacity="1" d="M 1152.5 174 L 1153 176.5 L 1152 176.5 L 1152.5 174 Z " /><path fill="rgb(171,202,231)" stroke="rgb(171,202,231)" stroke-width="1" opacity="1" d="M 40.5 175 L 48.5 184 L 40.5 175 Z " /><path fill="rgb(171,202,231)" stroke="rgb(171,202,231)" stroke-width="1" opacity="1" d="M 1153.5 179 L 1154 181.5 L 1153 181.5 L 1153.5 179 Z " /><path fill="rgb(171,202,231)" stroke="rgb(171,202,231)" stroke-width="1" opacity="1" d="M 1154.5 184 L 1155 186.5 L 1154 186.5 L 1154.5 184 Z " /><path fill="rgb(171,202,231)" stroke="rgb(171,202,231)" stroke-width="1" opacity="1" d="M 54.5 188 L 60.5 195 L 54.5 188 Z " /><path fill="rgb(171,202,231)" stroke="rgb(171,202,231)" stroke-width="1" opacity="1" d="M 1155.5 188 L 1156 190.5 L 1155 190.5 L 1155.5 188 Z " /><path fill="rgb(171,202,231)" stroke="rgb(171,202,231)" stroke-width="1" opacity="1" d="M 66.5 199 L 72.5 206 L 66.5 199 Z " /><path fill="rgb(171,202,231)" stroke="rgb(171,202,231)" stroke-width="1" opacity="1" d="M 78.5 210 L 83.5 216 L 78.5 210 Z " /><path fill="rgb(171,202,231)" stroke="rgb(171,202,231)" stroke-width="1" opacity="1" d="M 88.5 219 L 93.5 225 L 88.5 219 Z " /><path fill="rgb(171,202,231)" stroke="rgb(171,202,231)" stroke-width="1" opacity="1" d="M 97.5 227 L 102.5 233 L 97.5 227 Z " /><path fill="rgb(171,202,231)" stroke="rgb(171,202,231)" stroke-width="1" opacity="1" d="M 106.5 235 L 110.5 240 L 106.5 235 Z " /><path fill="rgb(171,202,231)" stroke="rgb(171,202,231)" stroke-width="1" opacity="1" d="M 114.5 242 L 118.5 247 L 114.5 242 Z " /><path fill="rgb(171,202,231)" stroke="rgb(171,202,231)" stroke-width="1" opacity="1" d="M 122.5 249 L 125.5 253 L 122.5 249 Z " /><path fill="rgb(171,202,231)" stroke="rgb(171,202,231)" stroke-width="1" opacity="1" d="M 1177.5 253 L 1182 261.5 L 1180 260.5 L 1177.5 253 Z " /><path fill="rgb(171,202,231)" stroke="rgb(171,202,231)" stroke-width="1" opacity="1" d="M 129.5 255 L 132.5 259 L 129.5 255 Z " /><path fill="rgb(171,202,231)" stroke="rgb(171,202,231)" stroke-width="1" opacity="1" d="M 135.5 260 L 138.5 264 L 135.5 260 Z " /><path fill="rgb(171,202,231)" stroke="rgb(171,202,231)" stroke-width="1" opacity="1" d="M 142.5 266 L 144.5 269 L 142.5 266 Z " /><path fill="rgb(171,202,231)" stroke="rgb(171,202,231)" stroke-width="1" opacity="1" d="M 1184.5 267 L 1185.5 269 L 1184.5 267 Z " /><path fill="rgb(171,202,231)" stroke="rgb(171,202,231)" stroke-width="1" opacity="1" d="M 148.5 271 L 150.5 274 L 148.5 271 Z " /><path fill="rgb(171,202,231)" stroke="rgb(171,202,231)" stroke-width="1" opacity="1" d="M 1187.5 272 L 1188.5 274 L 1187.5 272 Z " /><path fill="rgb(171,202,231)" stroke="rgb(171,202,231)" stroke-width="1" opacity="1" d="M 153.5 275 L 155.5 278 L 153.5 275 Z " /><path fill="rgb(171,202,231)" stroke="rgb(171,202,231)" stroke-width="1" opacity="1" d="M 1190.5 277 L 1191.5 279 L 1190.5 277 Z " /><path fill="rgb(171,202,231)" stroke="rgb(171,202,231)" stroke-width="1" opacity="1" d="M 158.5 279 L 160.5 282 L 158.5 279 Z " /><path fill="rgb(171,202,231)" stroke="rgb(171,202,231)" stroke-width="1" opacity="1" d="M 1192.5 280 L 1193.5 282 L 1192.5 280 Z " /><path fill="rgb(171,202,231)" stroke="rgb(171,202,231)" stroke-width="1" opacity="1" d="M 163.5 283 L 165.5 286 L 163.5 283 Z " /><path fill="rgb(171,202,231)" stroke="rgb(171,202,231)" stroke-width="1" opacity="1" d="M 1194.5 283 L 1196.5 286 L 1194.5 283 Z " /><path fill="rgb(171,202,231)" stroke="rgb(171,202,231)" stroke-width="1" opacity="1" d="M 168.5 287 L 170.5 290 L 168.5 287 Z " /><path fill="rgb(171,202,231)" stroke="rgb(171,202,231)" stroke-width="1" opacity="1" d="M 1197.5 287 L 1198.5 289 L 1197.5 287 Z " /><path fill="rgb(171,202,231)" stroke="rgb(171,202,231)" stroke-width="1" opacity="1" d="M 173.5 291 L 174.5 293 L 173.5 291 Z " /><path fill="rgb(171,202,231)" stroke="rgb(171,202,231)" stroke-width="1" opacity="1" d="M 1201.5 292 L 1203.5 295 L 1201.5 292 Z " /><path fill="rgb(171,202,231)" stroke="rgb(171,202,231)" stroke-width="1" opacity="1" d="M 177.5 294 L 179.5 297 L 177.5 294 Z " /><path fill="rgb(171,202,231)" stroke="rgb(171,202,231)" stroke-width="1" opacity="1" d="M 181.5 297 L 183.5 300 L 181.5 297 Z " /><path fill="rgb(171,202,231)" stroke="rgb(171,202,231)" stroke-width="1" opacity="1" d="M 1207.5 299 L 1213.5 306 L 1207.5 299 Z " /><path fill="rgb(171,202,231)" stroke="rgb(171,202,231)" stroke-width="1" opacity="1" d="M 185.5 300 L 187.5 303 L 185.5 300 Z " /><path fill="rgb(171,202,231)" stroke="rgb(171,202,231)" stroke-width="1" opacity="1" d="M 189.5 303 L 191.5 306 L 189.5 303 Z " /><path fill="rgb(171,202,231)" stroke="rgb(171,202,231)" stroke-width="1" opacity="1" d="M 193.5 306 L 195.5 309 L 193.5 306 Z " /><path fill="rgb(171,202,231)" stroke="rgb(171,202,231)" stroke-width="1" opacity="1" d="M 197.5 309 L 198.5 311 L 197.5 309 Z " /><path fill="rgb(171,202,231)" stroke="rgb(171,202,231)" stroke-width="1" opacity="1" d="M 1218.5 310 L 1225.5 318 L 1218.5 310 Z " /><path fill="rgb(171,202,231)" stroke="rgb(171,202,231)" stroke-width="1" opacity="1" d="M 201.5 312 L 202.5 314 L 201.5 312 Z " /><path fill="rgb(171,202,231)" stroke="rgb(171,202,231)" stroke-width="1" opacity="1" d="M 204.5 314 L 205.5 316 L 204.5 314 Z " /><path fill="rgb(171,202,231)" stroke="rgb(171,202,231)" stroke-width="1" opacity="1" d="M 208.5 317 L 209.5 319 L 208.5 317 Z " /><path fill="rgb(171,202,231)" stroke="rgb(171,202,231)" stroke-width="1" opacity="1" d="M 211.5 319 L 212.5 321 L 211.5 319 Z " /><path fill="rgb(171,202,231)" stroke="rgb(171,202,231)" stroke-width="1" opacity="1" d="M 1228.5 319 L 1232.5 324 L 1228.5 319 Z " /><path fill="rgb(171,202,231)" stroke="rgb(171,202,231)" stroke-width="1" opacity="1" d="M 214.5 321 L 215.5 323 L 214.5 321 Z " /><path fill="rgb(171,202,231)" stroke="rgb(171,202,231)" stroke-width="1" opacity="1" d="M 217.5 323 L 218.5 325 L 217.5 323 Z " /><path fill="rgb(171,202,231)" stroke="rgb(171,202,231)" stroke-width="1" opacity="1" d="M 1235.5 325 L 1237.5 328 L 1235.5 325 Z " /><path fill="rgb(171,202,231)" stroke="rgb(171,202,231)" stroke-width="1" opacity="1" d="M 221.5 326 L 222.5 328 L 221.5 326 Z " /><path fill="rgb(171,202,231)" stroke="rgb(171,202,231)" stroke-width="1" opacity="1" d="M 224.5 328 L 225.5 330 L 224.5 328 Z " /><path fill="rgb(171,202,231)" stroke="rgb(171,202,231)" stroke-width="1" opacity="1" d="M 1240.5 329 L 1242.5 332 L 1240.5 329 Z " /><path fill="rgb(171,202,231)" stroke="rgb(171,202,231)" stroke-width="1" opacity="1" d="M 1244.5 332 L 1245.5 334 L 1244.5 332 Z " /><path fill="rgb(171,202,231)" stroke="rgb(171,202,231)" stroke-width="1" opacity="1" d="M 232.5 333 L 233.5 335 L 232.5 333 Z " /><path fill="rgb(171,202,231)" stroke="rgb(171,202,231)" stroke-width="1" opacity="1" d="M 235.5 335 L 236.5 337 L 235.5 335 Z " /><path fill="rgb(171,202,231)" stroke="rgb(171,202,231)" stroke-width="1" opacity="1" d="M 1248.5 335 L 1249.5 337 L 1248.5 335 Z " /><path fill="rgb(171,202,231)" stroke="rgb(171,202,231)" stroke-width="1" opacity="1" d="M 1251.5 337 L 1252.5 339 L 1251.5 337 Z " /><path fill="rgb(171,202,231)" stroke="rgb(171,202,231)" stroke-width="1" opacity="1" d="M 1255.5 340 L 1256.5 342 L 1255.5 340 Z " /><path fill="rgb(171,202,231)" stroke="rgb(171,202,231)" stroke-width="1" opacity="1" d="M 1258.5 342 L 1259.5 344 L 1258.5 342 Z " /><path fill="rgb(171,202,231)" stroke="rgb(171,202,231)" stroke-width="1" opacity="1" d="M 250.5 344 L 251.5 346 L 250.5 344 Z " /><path fill="rgb(171,202,231)" stroke="rgb(171,202,231)" stroke-width="1" opacity="1" d="M 1261.5 344 L 1262.5 346 L 1261.5 344 Z " /><path fill="rgb(171,202,231)" stroke="rgb(171,202,231)" stroke-width="1" opacity="1" d="M 1264.5 346 L 1265.5 348 L 1264.5 346 Z " /><path fill="rgb(171,202,231)" stroke="rgb(171,202,231)" stroke-width="1" opacity="1" d="M 255.5 347 L 256.5 349 L 255.5 347 Z " /><path fill="rgb(171,202,231)" stroke="rgb(171,202,231)" stroke-width="1" opacity="1" d="M 1267.5 348 L 1268.5 350 L 1267.5 348 Z " /><path fill="rgb(171,202,231)" stroke="rgb(171,202,231)" stroke-width="1" opacity="1" d="M 1272.5 351 L 1273.5 353 L 1272.5 351 Z " /><path fill="rgb(171,202,231)" stroke="rgb(171,202,231)" stroke-width="1" opacity="1" d="M 264.5 352 L 265.5 354 L 264.5 352 Z " /><path fill="rgb(171,202,231)" stroke="rgb(171,202,231)" stroke-width="1" opacity="1" d="M 1277.5 354 L 1278.5 356 L 1277.5 354 Z " /><path fill="rgb(171,202,231)" stroke="rgb(171,202,231)" stroke-width="1" opacity="1" d="M 1280.5 356 L 1281.5 358 L 1280.5 356 Z " /><path fill="rgb(171,202,231)" stroke="rgb(171,202,231)" stroke-width="1" opacity="1" d="M 1292.5 363 L 1293.5 365 L 1292.5 363 Z " /><path fill="rgb(171,202,231)" stroke="rgb(171,202,231)" stroke-width="1" opacity="1" d="M 1299.5 367 L 1300.5 369 L 1299.5 367 Z " /><path fill="rgb(171,202,231)" stroke="rgb(171,202,231)" stroke-width="1" opacity="1" d="M 1306.5 371 L 1307.5 373 L 1306.5 371 Z " /><path fill="rgb(171,202,231)" stroke="rgb(171,202,231)" stroke-width="1" opacity="1" d="M 1313.5 375 L 1314.5 377 L 1313.5 375 Z " /><path fill="rgb(171,202,231)" stroke="rgb(171,202,231)" stroke-width="1" opacity="1" d="M 312.5 376 L 316 377.5 L 314.5 378 L 312.5 376 Z " /><path fill="rgb(171,202,231)" stroke="rgb(171,202,231)" stroke-width="1" opacity="1" d="M 1322.5 380 L 1323.5 382 L 1322.5 380 Z " /><path fill="rgb(171,202,231)" stroke="rgb(171,202,231)" stroke-width="1" opacity="1" d="M 1329.5 384 L 1330.5 386 L 1329.5 384 Z " /><path fill="rgb(171,202,231)" stroke="rgb(171,202,231)" stroke-width="1" opacity="1" d="M 1338.5 389 L 1339.5 391 L 1338.5 389 Z " /><path fill="rgb(171,202,231)" stroke="rgb(171,202,231)" stroke-width="1" opacity="1" d="M 1347.5 394 L 1348.5 396 L 1347.5 394 Z " /><path fill="rgb(171,202,231)" stroke="rgb(171,202,231)" stroke-width="1" opacity="1" d="M 1354.5 398 L 1358 400.5 L 1356.5 400 L 1354.5 398 Z " /><path fill="rgb(171,202,231)" stroke="rgb(171,202,231)" stroke-width="1" opacity="1" d="M 1361.5 402 L 1362.5 404 L 1361.5 402 Z " /><path fill="rgb(171,202,231)" stroke="rgb(171,202,231)" stroke-width="1" opacity="1" d="M 1366.5 405 L 1367.5 407 L 1366.5 405 Z " /><path fill="rgb(171,202,231)" stroke="rgb(171,202,231)" stroke-width="1" opacity="1" d="M 1371.5 408 L 1372.5 410 L 1371.5 408 Z " /><path fill="rgb(171,202,231)" stroke="rgb(171,202,231)" stroke-width="1" opacity="1" d="M 1376.5 411 L 1377.5 413 L 1376.5 411 Z " /><path fill="rgb(171,202,231)" stroke="rgb(171,202,231)" stroke-width="1" opacity="1" d="M 1381.5 414 L 1382.5 416 L 1381.5 414 Z " /><path fill="rgb(171,202,231)" stroke="rgb(171,202,231)" stroke-width="1" opacity="1" d="M 1389.5 419 L 1390.5 421 L 1389.5 419 Z " /><path fill="rgb(171,202,231)" stroke="rgb(171,202,231)" stroke-width="1" opacity="1" d="M 1392.5 421 L 1393.5 423 L 1392.5 421 Z " /><path fill="rgb(171,202,231)" stroke="rgb(171,202,231)" stroke-width="1" opacity="1" d="M 1395.5 423 L 1396.5 425 L 1395.5 423 Z " /><path fill="rgb(171,202,231)" stroke="rgb(171,202,231)" stroke-width="1" opacity="1" d="M 1402.5 428 L 1403.5 430 L 1402.5 428 Z " /><path fill="rgb(171,202,231)" stroke="rgb(171,202,231)" stroke-width="1" opacity="1" d="M 1405.5 430 L 1406.5 432 L 1405.5 430 Z " /><path fill="rgb(171,202,231)" stroke="rgb(171,202,231)" stroke-width="1" opacity="1" d="M 1408.5 432 L 1410.5 435 L 1408.5 432 Z " /><path fill="rgb(171,202,231)" stroke="rgb(171,202,231)" stroke-width="1" opacity="1" d="M 1412.5 435 L 1413.5 437 L 1412.5 435 Z " /><path fill="rgb(171,202,231)" stroke="rgb(171,202,231)" stroke-width="1" opacity="1" d="M 1416.5 438 L 1417.5 440 L 1416.5 438 Z " /><path fill="rgb(171,202,231)" stroke="rgb(171,202,231)" stroke-width="1" opacity="1" d="M 1420.5 441 L 1421.5 443 L 1420.5 441 Z " /><path fill="rgb(171,202,231)" stroke="rgb(171,202,231)" stroke-width="1" opacity="1" d="M 1425.5 445 L 1428.5 449 L 1425.5 445 Z " /><path fill="rgb(171,202,231)" stroke="rgb(171,202,231)" stroke-width="1" opacity="1" d="M 490.5 447 L 494 448.5 L 492.5 449 L 490.5 447 Z " /><path fill="rgb(171,202,231)" stroke="rgb(171,202,231)" stroke-width="1" opacity="1" d="M 1431.5 450 L 1435.5 455 L 1431.5 450 Z " /><path fill="rgb(171,202,231)" stroke="rgb(171,202,231)" stroke-width="1" opacity="1" d="M 507.5 455 L 511 456.5 L 509.5 457 L 507.5 455 Z " /><path fill="rgb(171,202,231)" stroke="rgb(171,202,231)" stroke-width="1" opacity="1" d="M 1439.5 457 L 1458.5 477 L 1439.5 457 Z " /><path fill="rgb(171,202,231)" stroke="rgb(171,202,231)" stroke-width="1" opacity="1" d="M 550.5 476 L 554 478.5 L 552.5 478 L 550.5 476 Z " /><path fill="rgb(171,202,231)" stroke="rgb(171,202,231)" stroke-width="1" opacity="1" d="M 1461.5 480 L 1464.5 484 L 1461.5 480 Z " /><path fill="rgb(171,202,231)" stroke="rgb(171,202,231)" stroke-width="1" opacity="1" d="M 561.5 482 L 562.5 484 L 561.5 482 Z " /><path fill="rgb(171,202,231)" stroke="rgb(171,202,231)" stroke-width="1" opacity="1" d="M 1465.5 485 L 1468.5 489 L 1465.5 485 Z " /><path fill="rgb(171,202,231)" stroke="rgb(171,202,231)" stroke-width="1" opacity="1" d="M 570.5 487 L 571.5 489 L 570.5 487 Z " /><path fill="rgb(171,202,231)" stroke="rgb(171,202,231)" stroke-width="1" opacity="1" d="M 1470.5 491 L 1471.5 493 L 1470.5 491 Z " /><path fill="rgb(171,202,231)" stroke="rgb(171,202,231)" stroke-width="1" opacity="1" d="M 580.5 493 L 581.5 495 L 580.5 493 Z " /><path fill="rgb(171,202,231)" stroke="rgb(171,202,231)" stroke-width="1" opacity="1" d="M 1473.5 495 L 1475.5 498 L 1473.5 495 Z " /><path fill="rgb(171,202,231)" stroke="rgb(171,202,231)" stroke-width="1" opacity="1" d="M 585.5 496 L 586.5 498 L 585.5 496 Z " /><path fill="rgb(171,202,231)" stroke="rgb(171,202,231)" stroke-width="1" opacity="1" d="M 590.5 499 L 591.5 501 L 590.5 499 Z " /><path fill="rgb(171,202,231)" stroke="rgb(171,202,231)" stroke-width="1" opacity="1" d="M 1476.5 499 L 1477.5 501 L 1476.5 499 Z " /><path fill="rgb(171,202,231)" stroke="rgb(171,202,231)" stroke-width="1" opacity="1" d="M 595.5 502 L 596.5 504 L 595.5 502 Z " /><path fill="rgb(171,202,231)" stroke="rgb(171,202,231)" stroke-width="1" opacity="1" d="M 1478.5 502 L 1480.5 505 L 1478.5 502 Z " /><path fill="rgb(171,202,231)" stroke="rgb(171,202,231)" stroke-width="1" opacity="1" d="M 598.5 504 L 599.5 506 L 598.5 504 Z " /><path fill="rgb(171,202,231)" stroke="rgb(171,202,231)" stroke-width="1" opacity="1" d="M 601.5 506 L 602.5 508 L 601.5 506 Z " /><path fill="rgb(171,202,231)" stroke="rgb(171,202,231)" stroke-width="1" opacity="1" d="M 1481.5 506 L 1482.5 508 L 1481.5 506 Z " /><path fill="rgb(171,202,231)" stroke="rgb(171,202,231)" stroke-width="1" opacity="1" d="M 604.5 508 L 605.5 510 L 604.5 508 Z " /><path fill="rgb(171,202,231)" stroke="rgb(171,202,231)" stroke-width="1" opacity="1" d="M 1483.5 509 L 1484.5 511 L 1483.5 509 Z " /><path fill="rgb(171,202,231)" stroke="rgb(171,202,231)" stroke-width="1" opacity="1" d="M 607.5 510 L 608.5 512 L 607.5 510 Z " /><path fill="rgb(171,202,231)" stroke="rgb(171,202,231)" stroke-width="1" opacity="1" d="M 610.5 512 L 611.5 514 L 610.5 512 Z " /><path fill="rgb(171,202,231)" stroke="rgb(171,202,231)" stroke-width="1" opacity="1" d="M 613.5 514 L 614.5 516 L 613.5 514 Z " /><path fill="rgb(171,202,231)" stroke="rgb(171,202,231)" stroke-width="1" opacity="1" d="M 616.5 516 L 617.5 518 L 616.5 516 Z " /><path fill="rgb(171,202,231)" stroke="rgb(171,202,231)" stroke-width="1" opacity="1" d="M 619.5 518 L 620.5 520 L 619.5 518 Z " /><path fill="rgb(171,202,231)" stroke="rgb(171,202,231)" stroke-width="1" opacity="1" d="M 1489.5 518 L 1490.5 520 L 1489.5 518 Z " /><path fill="rgb(171,202,231)" stroke="rgb(171,202,231)" stroke-width="1" opacity="1" d="M 623.5 521 L 624.5 523 L 623.5 521 Z " /><path fill="rgb(171,202,231)" stroke="rgb(171,202,231)" stroke-width="1" opacity="1" d="M 1491.5 521 L 1492.5 523 L 1491.5 521 Z " /><path fill="rgb(171,202,231)" stroke="rgb(171,202,231)" stroke-width="1" opacity="1" d="M 626.5 523 L 627.5 525 L 626.5 523 Z " /><path fill="rgb(171,202,231)" stroke="rgb(171,202,231)" stroke-width="1" opacity="1" d="M 630.5 526 L 632.5 529 L 630.5 526 Z " /><path fill="rgb(171,202,231)" stroke="rgb(171,202,231)" stroke-width="1" opacity="1" d="M 634.5 529 L 636.5 532 L 634.5 529 Z " /><path fill="rgb(171,202,231)" stroke="rgb(171,202,231)" stroke-width="1" opacity="1" d="M 1496.5 529 L 1497.5 531 L 1496.5 529 Z " /><path fill="rgb(171,202,231)" stroke="rgb(171,202,231)" stroke-width="1" opacity="1" d="M 639.5 533 L 640.5 535 L 639.5 533 Z " /><path fill="rgb(171,202,231)" stroke="rgb(171,202,231)" stroke-width="1" opacity="1" d="M 1499.5 534 L 1500.5 536 L 1499.5 534 Z " /><path fill="rgb(171,202,231)" stroke="rgb(171,202,231)" stroke-width="1" opacity="1" d="M 643.5 536 L 645.5 539 L 643.5 536 Z " /><path fill="rgb(171,202,231)" stroke="rgb(171,202,231)" stroke-width="1" opacity="1" d="M 1502.5 539 L 1503.5 541 L 1502.5 539 Z " /><path fill="rgb(171,202,231)" stroke="rgb(171,202,231)" stroke-width="1" opacity="1" d="M 648.5 540 L 650.5 543 L 648.5 540 Z " /><path fill="rgb(171,202,231)" stroke="rgb(171,202,231)" stroke-width="1" opacity="1" d="M 653.5 544 L 656.5 548 L 653.5 544 Z " /><path fill="rgb(171,202,231)" stroke="rgb(171,202,231)" stroke-width="1" opacity="1" d="M 1506.5 546 L 1507.5 548 L 1506.5 546 Z " /><path fill="rgb(171,202,231)" stroke="rgb(171,202,231)" stroke-width="1" opacity="1" d="M 659.5 549 L 664.5 555 L 659.5 549 Z " /><path fill="rgb(171,202,231)" stroke="rgb(171,202,231)" stroke-width="1" opacity="1" d="M 1510.5 553 L 1513 556.5 L 1511 555.5 L 1510.5 553 Z " /><path fill="rgb(171,202,231)" stroke="rgb(171,202,231)" stroke-width="1" opacity="1" d="M 669.5 558 L 690.5 580 L 669.5 558 Z " /><path fill="rgb(171,202,231)" stroke="rgb(171,202,231)" stroke-width="1" opacity="1" d="M 1516.5 564 L 1519 567.5 L 1517 566.5 L 1516.5 564 Z " /><path fill="rgb(171,202,231)" stroke="rgb(171,202,231)" stroke-width="1" opacity="1" d="M 1523.5 577 L 1526 580.5 L 1524 579.5 L 1523.5 577 Z " /><path fill="rgb(171,202,231)" stroke="rgb(171,202,231)" stroke-width="1" opacity="1" d="M 694.5 584 L 698.5 589 L 694.5 584 Z " /><path fill="rgb(171,202,231)" stroke="rgb(171,202,231)" stroke-width="1" opacity="1" d="M 700.5 591 L 703.5 595 L 700.5 591 Z " /><path fill="rgb(171,202,231)" stroke="rgb(171,202,231)" stroke-width="1" opacity="1" d="M 705.5 597 L 707.5 600 L 705.5 597 Z " /><path fill="rgb(171,202,231)" stroke="rgb(171,202,231)" stroke-width="1" opacity="1" d="M 1534.5 598 L 1538 603.5 L 1536 602.5 L 1534.5 598 Z " /><path fill="rgb(171,202,231)" stroke="rgb(171,202,231)" stroke-width="1" opacity="1" d="M 708.5 601 L 710.5 604 L 708.5 601 Z " /><path fill="rgb(171,202,231)" stroke="rgb(171,202,231)" stroke-width="1" opacity="1" d="M 711.5 605 L 713.5 608 L 711.5 605 Z " /><path fill="rgb(171,202,231)" stroke="rgb(171,202,231)" stroke-width="1" opacity="1" d="M 714.5 609 L 715.5 611 L 714.5 609 Z " /><path fill="rgb(171,202,231)" stroke="rgb(171,202,231)" stroke-width="1" opacity="1" d="M 717.5 613 L 718.5 615 L 717.5 613 Z " /><path fill="rgb(171,202,231)" stroke="rgb(171,202,231)" stroke-width="1" opacity="1" d="M 1542.5 613 L 1545 616.5 L 1543 615.5 L 1542.5 613 Z " /><path fill="rgb(171,202,231)" stroke="rgb(171,202,231)" stroke-width="1" opacity="1" d="M 719.5 616 L 720.5 618 L 719.5 616 Z " /><path fill="rgb(171,202,231)" stroke="rgb(171,202,231)" stroke-width="1" opacity="1" d="M 721.5 619 L 722.5 621 L 721.5 619 Z " /><path fill="rgb(171,202,231)" stroke="rgb(171,202,231)" stroke-width="1" opacity="1" d="M 723.5 622 L 724.5 624 L 723.5 622 Z " /><path fill="rgb(171,202,231)" stroke="rgb(171,202,231)" stroke-width="1" opacity="1" d="M 726.5 627 L 727.5 629 L 726.5 627 Z " /><path fill="rgb(171,202,231)" stroke="rgb(171,202,231)" stroke-width="1" opacity="1" d="M 1550.5 628 L 1551.5 630 L 1550.5 628 Z " /><path fill="rgb(171,202,231)" stroke="rgb(171,202,231)" stroke-width="1" opacity="1" d="M 729.5 632 L 732 635.5 L 730 634.5 L 729.5 632 Z " /><path fill="rgb(171,202,231)" stroke="rgb(171,202,231)" stroke-width="1" opacity="1" d="M 1554.5 635 L 1555.5 637 L 1554.5 635 Z " /><path fill="rgb(171,202,231)" stroke="rgb(171,202,231)" stroke-width="1" opacity="1" d="M 1559.5 644 L 1560.5 646 L 1559.5 644 Z " /><path fill="rgb(171,202,231)" stroke="rgb(171,202,231)" stroke-width="1" opacity="1" d="M 1562.5 649 L 1563.5 651 L 1562.5 649 Z " /><path fill="rgb(171,202,231)" stroke="rgb(171,202,231)" stroke-width="1" opacity="1" d="M 1565.5 654 L 1566.5 656 L 1565.5 654 Z " /><path fill="rgb(171,202,231)" stroke="rgb(171,202,231)" stroke-width="1" opacity="1" d="M 741.5 655 L 743 658.5 L 742 658.5 L 741.5 655 Z " /><path fill="rgb(171,202,231)" stroke="rgb(171,202,231)" stroke-width="1" opacity="1" d="M 1570.5 662 L 1571.5 664 L 1570.5 662 Z " /><path fill="rgb(171,202,231)" stroke="rgb(171,202,231)" stroke-width="1" opacity="1" d="M 1572.5 665 L 1573.5 667 L 1572.5 665 Z " /><path fill="rgb(171,202,231)" stroke="rgb(171,202,231)" stroke-width="1" opacity="1" d="M 1580.5 677 L 1581.5 679 L 1580.5 677 Z " /><path fill="rgb(171,202,231)" stroke="rgb(171,202,231)" stroke-width="1" opacity="1" d="M 1582.5 680 L 1583.5 682 L 1582.5 680 Z " /><path fill="rgb(171,202,231)" stroke="rgb(171,202,231)" stroke-width="1" opacity="1" d="M 1585.5 684 L 1586.5 686 L 1585.5 684 Z " /><path fill="rgb(171,202,231)" stroke="rgb(171,202,231)" stroke-width="1" opacity="1" d="M 1588.5 688 L 1589.5 690 L 1588.5 688 Z " /><path fill="rgb(171,202,231)" stroke="rgb(171,202,231)" stroke-width="1" opacity="1" d="M 1591.5 692 L 1593.5 695 L 1591.5 692 Z " /><path fill="rgb(171,202,231)" stroke="rgb(171,202,231)" stroke-width="1" opacity="1" d="M 1595.5 697 L 1600.5 703 L 1595.5 697 Z " /><path fill="rgb(171,202,231)" stroke="rgb(171,202,231)" stroke-width="1" opacity="1" d="M 1605.5 708 L 1614.5 718 L 1605.5 708 Z " /><path fill="rgb(171,202,231)" stroke="rgb(171,202,231)" stroke-width="1" opacity="1" d="M 1618.5 720 L 1621.5 724 L 1618.5 720 Z " /><path fill="rgb(171,202,231)" stroke="rgb(171,202,231)" stroke-width="1" opacity="1" d="M 764.5 725 L 765 727.5 L 764 727.5 L 764.5 725 Z " /><path fill="rgb(171,202,231)" stroke="rgb(171,202,231)" stroke-width="1" opacity="1" d="M 1624.5 725 L 1626.5 728 L 1624.5 725 Z " /><path fill="rgb(171,202,231)" stroke="rgb(171,202,231)" stroke-width="1" opacity="1" d="M 1629.5 729 L 1630.5 731 L 1629.5 729 Z " /><path fill="rgb(171,202,231)" stroke="rgb(171,202,231)" stroke-width="1" opacity="1" d="M 765.5 730 L 766 732.5 L 765 732.5 L 765.5 730 Z " /><path fill="rgb(171,202,231)" stroke="rgb(171,202,231)" stroke-width="1" opacity="1" d="M 1632.5 731 L 1633.5 733 L 1632.5 731 Z " /><path fill="rgb(171,202,231)" stroke="rgb(171,202,231)" stroke-width="1" opacity="1" d="M 766.5 734 L 767 736.5 L 766 736.5 L 766.5 734 Z " /><path fill="rgb(171,202,231)" stroke="rgb(171,202,231)" stroke-width="1" opacity="1" d="M 1638.5 735 L 1639.5 737 L 1638.5 735 Z " /><path fill="rgb(171,202,231)" stroke="rgb(171,202,231)" stroke-width="1" opacity="1" d="M 1641.5 737 L 1642.5 739 L 1641.5 737 Z " /><path fill="rgb(171,202,231)" stroke="rgb(171,202,231)" stroke-width="1" opacity="1" d="M 767.5 739 L 768 741.5 L 767 741.5 L 767.5 739 Z " /><path fill="rgb(171,202,231)" stroke="rgb(171,202,231)" stroke-width="1" opacity="1" d="M 1646.5 740 L 1647.5 742 L 1646.5 740 Z " /><path fill="rgb(171,202,231)" stroke="rgb(171,202,231)" stroke-width="1" opacity="1" d="M 768.5 745 L 769 747.5 L 768 747.5 L 768.5 745 Z " /><path fill="rgb(171,202,231)" stroke="rgb(171,202,231)" stroke-width="1" opacity="1" d="M 1655.5 745 L 1664 749.5 L 1662.5 750 L 1656.5 747 L 1655.5 745 Z " /><path fill="rgb(171,202,231)" stroke="rgb(171,202,231)" stroke-width="1" opacity="1" d="M 769.5 750 L 770 753.5 L 769 753.5 L 769.5 750 Z " /><path fill="rgb(171,202,231)" stroke="rgb(171,202,231)" stroke-width="1" opacity="1" d="M 770.5 756 L 771 759.5 L 770 759.5 L 770.5 756 Z " /><path fill="rgb(171,202,231)" stroke="rgb(171,202,231)" stroke-width="1" opacity="1" d="M 771.5 763 L 772 766.5 L 771 766.5 L 771.5 763 Z " /><path fill="rgb(171,202,231)" stroke="rgb(171,202,231)" stroke-width="1" opacity="1" d="M 1714.5 767 L 1717 767.5 L 1714.5 768 L 1714.5 767 Z " /><path fill="rgb(171,202,231)" stroke="rgb(171,202,231)" stroke-width="1" opacity="1" d="M 1718.5 768 L 1721 768.5 L 1718.5 769 L 1718.5 768 Z " /><path fill="rgb(171,202,231)" stroke="rgb(171,202,231)" stroke-width="1" opacity="1" d="M 772.5 770 L 773 773.5 L 772 773.5 L 772.5 770 Z " /><path fill="rgb(171,202,231)" stroke="rgb(171,202,231)" stroke-width="1" opacity="1" d="M 1727.5 770 L 1730 770.5 L 1727.5 771 L 1727.5 770 Z " /><path fill="rgb(171,202,231)" stroke="rgb(171,202,231)" stroke-width="1" opacity="1" d="M 1733.5 771 L 1736 771.5 L 1733.5 772 L 1733.5 771 Z " /><path fill="rgb(171,202,231)" stroke="rgb(171,202,231)" stroke-width="1" opacity="1" d="M 1738.5 772 L 1741 772.5 L 1738.5 773 L 1738.5 772 Z " /><path fill="rgb(171,202,231)" stroke="rgb(171,202,231)" stroke-width="1" opacity="1" d="M 1743.5 773 L 1747 773.5 L 1743.5 774 L 1743.5 773 Z " /><path fill="rgb(171,202,231)" stroke="rgb(171,202,231)" stroke-width="1" opacity="1" d="M 1750.5 774 L 1754 774.5 L 1750.5 775 L 1750.5 774 Z " /><path fill="rgb(171,202,231)" stroke="rgb(171,202,231)" stroke-width="1" opacity="1" d="M 1757.5 775 L 1762 775.5 L 1757.5 776 L 1757.5 775 Z " /><path fill="rgb(171,202,231)" stroke="rgb(171,202,231)" stroke-width="1" opacity="1" d="M 1765.5 776 L 1770 776.5 L 1765.5 777 L 1765.5 776 Z " /><path fill="rgb(171,202,231)" stroke="rgb(171,202,231)" stroke-width="1" opacity="1" d="M 773.5 777 L 774 781.5 L 773 781.5 L 773.5 777 Z " /><path fill="rgb(171,202,231)" stroke="rgb(171,202,231)" stroke-width="1" opacity="1" d="M 1774.5 777 L 1780 777.5 L 1774.5 778 L 1774.5 777 Z " /><path fill="rgb(171,202,231)" stroke="rgb(171,202,231)" stroke-width="1" opacity="1" d="M 1784.5 778 L 1789 778.5 L 1784.5 779 L 1784.5 778 Z " /><path fill="rgb(171,202,231)" stroke="rgb(171,202,231)" stroke-width="1" opacity="1" d="M 1795.5 779 L 1804 779.5 L 1795.5 780 L 1795.5 779 Z " /><path fill="rgb(171,202,231)" stroke="rgb(171,202,231)" stroke-width="1" opacity="1" d="M 1810.5 780 L 1820 780.5 L 1810.5 781 L 1810.5 780 Z " /><path fill="rgb(171,202,231)" stroke="rgb(171,202,231)" stroke-width="1" opacity="1" d="M 1836.5 781 L 1859 781.5 L 1836.5 782 L 1836.5 781 Z " /><path fill="rgb(171,202,231)" stroke="rgb(171,202,231)" stroke-width="1" opacity="1" d="M 774.5 786 L 775 790.5 L 774 790.5 L 774.5 786 Z " /><path fill="rgb(171,202,231)" stroke="rgb(171,202,231)" stroke-width="1" opacity="1" d="M 775.5 795 L 776 800.5 L 775 800.5 L 775.5 795 Z " /><path fill="rgb(171,202,231)" stroke="rgb(171,202,231)" stroke-width="1" opacity="1" d="M 776.5 805 L 777 811.5 L 776 811.5 L 776.5 805 Z " /><path fill="rgb(171,202,231)" stroke="rgb(171,202,231)" stroke-width="1" opacity="1" d="M 777.5 817 L 778 824.5 L 777 824.5 L 777.5 817 Z " /><path fill="rgb(171,202,231)" stroke="rgb(171,202,231)" stroke-width="1" opacity="1" d="M 778.5 831 L 779 839.5 L 778 839.5 L 778.5 831 Z " /><path fill="rgb(171,202,231)" stroke="rgb(171,202,231)" stroke-width="1" opacity="1" d="M 779.5 848 L 780 859.5 L 779 859.5 L 779.5 848 Z " /><path fill="rgb(171,202,231)" stroke="rgb(171,202,231)" stroke-width="1" opacity="1" d="M 780.5 870 L 781 885.5 L 780 885.5 L 780.5 870 Z " /><path fill="rgb(171,202,231)" stroke="rgb(171,202,231)" stroke-width="1" opacity="1" d="M 781.5 900 L 782 915.5 L 781 915.5 L 781.5 900 Z " /><path fill="rgb(175,205,234)" stroke="rgb(175,205,234)" stroke-width="1" opacity="1" d="M 1138.5 26 L 1139 29.5 L 1138 29.5 L 1138.5 26 Z " /><path fill="rgb(175,205,234)" stroke="rgb(175,205,234)" stroke-width="1" opacity="1" d="M 1139.5 51 L 1140 53.5 L 1139 53.5 L 1139.5 51 Z " /><path fill="rgb(175,205,234)" stroke="rgb(175,205,234)" stroke-width="1" opacity="1" d="M 5.5 142 L 10.5 148 L 5.5 142 Z " /><path fill="rgb(175,205,234)" stroke="rgb(175,205,234)" stroke-width="1" opacity="1" d="M 22.5 158 L 25.5 162 L 22.5 158 Z " /><path fill="rgb(175,205,234)" stroke="rgb(175,205,234)" stroke-width="1" opacity="1" d="M 36.5 171 L 39.5 175 L 36.5 171 Z " /><path fill="rgb(175,205,234)" stroke="rgb(175,205,234)" stroke-width="1" opacity="1" d="M 50.5 184 L 53.5 188 L 50.5 184 Z " /><path fill="rgb(175,205,234)" stroke="rgb(175,205,234)" stroke-width="1" opacity="1" d="M 62.5 195 L 65.5 199 L 62.5 195 Z " /><path fill="rgb(175,205,234)" stroke="rgb(175,205,234)" stroke-width="1" opacity="1" d="M 74.5 206 L 77.5 210 L 74.5 206 Z " /><path fill="rgb(175,205,234)" stroke="rgb(175,205,234)" stroke-width="1" opacity="1" d="M 85.5 216 L 87.5 219 L 85.5 216 Z " /><path fill="rgb(175,205,234)" stroke="rgb(175,205,234)" stroke-width="1" opacity="1" d="M 95.5 225 L 96.5 227 L 95.5 225 Z " /><path fill="rgb(175,205,234)" stroke="rgb(175,205,234)" stroke-width="1" opacity="1" d="M 104.5 233 L 105.5 235 L 104.5 233 Z " /><path fill="rgb(175,205,234)" stroke="rgb(175,205,234)" stroke-width="1" opacity="1" d="M 111.5 239 L 113.5 242 L 111.5 239 Z " /><path fill="rgb(175,205,234)" stroke="rgb(175,205,234)" stroke-width="1" opacity="1" d="M 119.5 246 L 121.5 249 L 119.5 246 Z " /><path fill="rgb(175,205,234)" stroke="rgb(175,205,234)" stroke-width="1" opacity="1" d="M 126.5 252 L 128.5 255 L 126.5 252 Z " /><path fill="rgb(175,205,234)" stroke="rgb(175,205,234)" stroke-width="1" opacity="1" d="M 133.5 258 L 134.5 260 L 133.5 258 Z " /><path fill="rgb(175,205,234)" stroke="rgb(175,205,234)" stroke-width="1" opacity="1" d="M 139.5 263 L 141.5 266 L 139.5 263 Z " /><path fill="rgb(175,205,234)" stroke="rgb(175,205,234)" stroke-width="1" opacity="1" d="M 145.5 268 L 147.5 271 L 145.5 268 Z " /><path fill="rgb(175,205,234)" stroke="rgb(175,205,234)" stroke-width="1" opacity="1" d="M 156.5 277 L 157.5 279 L 156.5 277 Z " /><path fill="rgb(175,205,234)" stroke="rgb(175,205,234)" stroke-width="1" opacity="1" d="M 161.5 281 L 162.5 283 L 161.5 281 Z " /><path fill="rgb(175,205,234)" stroke="rgb(175,205,234)" stroke-width="1" opacity="1" d="M 1199.5 290 L 1200.5 292 L 1199.5 290 Z " /><path fill="rgb(175,205,234)" stroke="rgb(175,205,234)" stroke-width="1" opacity="1" d="M 175.5 292 L 176.5 294 L 175.5 292 Z " /><path fill="rgb(175,205,234)" stroke="rgb(175,205,234)" stroke-width="1" opacity="1" d="M 1203.5 295 L 1206.5 299 L 1203.5 295 Z " /><path fill="rgb(175,205,234)" stroke="rgb(175,205,234)" stroke-width="1" opacity="1" d="M 1211.5 304 L 1212.5 306 L 1211.5 304 Z " /><path fill="rgb(175,205,234)" stroke="rgb(175,205,234)" stroke-width="1" opacity="1" d="M 1214.5 307 L 1216.5 310 L 1214.5 307 Z " /><path fill="rgb(175,205,234)" stroke="rgb(175,205,234)" stroke-width="1" opacity="1" d="M 199.5 310 L 200.5 312 L 199.5 310 Z " /><path fill="rgb(175,205,234)" stroke="rgb(175,205,234)" stroke-width="1" opacity="1" d="M 206.5 315 L 207.5 317 L 206.5 315 Z " /><path fill="rgb(175,205,234)" stroke="rgb(175,205,234)" stroke-width="1" opacity="1" d="M 1226.5 318 L 1227.5 320 L 1226.5 318 Z " /><path fill="rgb(175,205,234)" stroke="rgb(175,205,234)" stroke-width="1" opacity="1" d="M 1233.5 324 L 1234.5 326 L 1233.5 324 Z " /><path fill="rgb(175,205,234)" stroke="rgb(175,205,234)" stroke-width="1" opacity="1" d="M 1400.5 427 L 1401.5 429 L 1400.5 427 Z " /><path fill="rgb(175,205,234)" stroke="rgb(175,205,234)" stroke-width="1" opacity="1" d="M 1422.5 443 L 1424.5 446 L 1422.5 443 Z " /><path fill="rgb(175,205,234)" stroke="rgb(175,205,234)" stroke-width="1" opacity="1" d="M 1429.5 449 L 1430.5 451 L 1429.5 449 Z " /><path fill="rgb(175,205,234)" stroke="rgb(175,205,234)" stroke-width="1" opacity="1" d="M 1436.5 455 L 1437.5 457 L 1436.5 455 Z " /><path fill="rgb(175,205,234)" stroke="rgb(175,205,234)" stroke-width="1" opacity="1" d="M 1458.5 477 L 1460.5 480 L 1458.5 477 Z " /><path fill="rgb(175,205,234)" stroke="rgb(175,205,234)" stroke-width="1" opacity="1" d="M 1468.5 489 L 1469.5 491 L 1468.5 489 Z " /><path fill="rgb(175,205,234)" stroke="rgb(175,205,234)" stroke-width="1" opacity="1" d="M 1484.5 511 L 1485.5 513 L 1484.5 511 Z " /><path fill="rgb(175,205,234)" stroke="rgb(175,205,234)" stroke-width="1" opacity="1" d="M 637.5 531 L 638.5 533 L 637.5 531 Z " /><path fill="rgb(175,205,234)" stroke="rgb(175,205,234)" stroke-width="1" opacity="1" d="M 641.5 534 L 642.5 536 L 641.5 534 Z " /><path fill="rgb(175,205,234)" stroke="rgb(175,205,234)" stroke-width="1" opacity="1" d="M 646.5 538 L 647.5 540 L 646.5 538 Z " /><path fill="rgb(175,205,234)" stroke="rgb(175,205,234)" stroke-width="1" opacity="1" d="M 651.5 542 L 652.5 544 L 651.5 542 Z " /><path fill="rgb(175,205,234)" stroke="rgb(175,205,234)" stroke-width="1" opacity="1" d="M 657.5 547 L 658.5 549 L 657.5 547 Z " /><path fill="rgb(175,205,234)" stroke="rgb(175,205,234)" stroke-width="1" opacity="1" d="M 665.5 554 L 668.5 558 L 665.5 554 Z " /><path fill="rgb(175,205,234)" stroke="rgb(175,205,234)" stroke-width="1" opacity="1" d="M 691.5 580 L 695.5 585 L 691.5 580 Z " /><path fill="rgb(175,205,234)" stroke="rgb(175,205,234)" stroke-width="1" opacity="1" d="M 699.5 589 L 700.5 591 L 699.5 589 Z " /><path fill="rgb(175,205,234)" stroke="rgb(175,205,234)" stroke-width="1" opacity="1" d="M 1583.5 682 L 1584.5 684 L 1583.5 682 Z " /><path fill="rgb(175,205,234)" stroke="rgb(175,205,234)" stroke-width="1" opacity="1" d="M 1601.5 704 L 1604.5 708 L 1601.5 704 Z " /><path fill="rgb(175,205,234)" stroke="rgb(175,205,234)" stroke-width="1" opacity="1" d="M 1615.5 718 L 1616.5 720 L 1615.5 718 Z " /><path fill="rgb(175,205,234)" stroke="rgb(175,205,234)" stroke-width="1" opacity="1" d="M 1627.5 728 L 1628.5 730 L 1627.5 728 Z " /><path fill="rgb(175,205,234)" stroke="rgb(175,205,234)" stroke-width="1" opacity="1" d="M 1792.5 779 L 1795 779.5 L 1792.5 780 L 1792.5 779 Z " /><path fill="rgb(175,205,234)" stroke="rgb(175,205,234)" stroke-width="1" opacity="1" d="M 1832.5 781 L 1836 781.5 L 1832.5 782 L 1832.5 781 Z " /><path fill="rgb(175,205,234)" stroke="rgb(175,205,234)" stroke-width="1" opacity="1" d="M 780.5 867 L 781 869.5 L 780 869.5 L 780.5 867 Z " /><path fill="rgb(175,205,234)" stroke="rgb(175,205,234)" stroke-width="1" opacity="1" d="M 781.5 896 L 782 899.5 L 781 899.5 L 781.5 896 Z " /><path fill="rgb(175,206,234)" stroke="rgb(175,206,234)" stroke-width="1" opacity="1" d="M 0 0 L 1137.5 0 L 1138 0.5 L 1138 29.5 L 1139 30.5 L 1139 53.5 L 1140 54.5 L 1141 89.5 L 1142 90.5 L 1142 102.5 L 1143 103.5 L 1145 132.5 L 1146 133.5 L 1147 148.5 L 1148 149.5 L 1151 172.5 L 1158 203.5 Q 1167.1 236.9 1182 264.5 Q 1194.8 287.8 1212.5 306 Q 1214.8 305.3 1214 307.5 L 1218 310 Q 1216.9 312.7 1219.5 312 L 1234.5 326 L 1266.5 349 L 1386.5 418 L 1415.5 438 L 1439 457 Q 1437.9 459.7 1440.5 459 Q 1467 483.5 1487 514.5 L 1510 552.5 L 1548 625.5 L 1569 661.5 Q 1588.9 694.6 1616.5 720 Q 1638.1 739.4 1666.5 752 L 1699.5 764 L 1726.5 771 L 1731.5 771 L 1756.5 776 L 1763.5 776 L 1764.5 777 L 1782.5 778 L 1792.5 780 L 1807.5 780 L 1808.5 781 L 1831.5 781 L 1832.5 782 L 1920 782 L 1920 919.5 L 1919.5 920 L 782 920 L 780 846.5 L 779 845.5 L 779 829.5 L 778 828.5 L 778 816.5 L 777 815.5 L 775 784.5 L 774 783.5 L 771 755.5 L 769 749.5 L 766 729.5 L 756 691.5 L 740 650.5 L 726 624.5 Q 700.4 584.6 665.5 554 L 618.5 517 Q 583.9 493.1 545.5 473 L 468.5 437 L 316.5 378 L 272.5 357 L 239.5 338 Q 193.2 308.3 151.5 274 Q 73.2 208.3 0 137.5 L 0 0 Z " /><path fill="rgb(37,48,58)" stroke="rgb(37,48,58)" stroke-width="1" opacity="1" d="M 1529 0 L 1920 0 L 1920 391 L 1861.5 390 L 1860.5 389 L 1849.5 389 L 1848.5 388 L 1833.5 387 L 1814.5 383 Q 1796.6 378.4 1782.5 370 Q 1767 360.5 1756 346.5 L 1740 322.5 L 1705 258.5 Q 1693.3 240.2 1677.5 226 L 1651.5 207 L 1587.5 170 Q 1573.2 160.3 1562 147.5 L 1548 125.5 L 1539 100.5 L 1534 75.5 L 1533 59.5 L 1532 58.5 L 1531 32.5 L 1530 31.5 L 1530 6.5 L 1529 0 Z " /><path fill="rgb(37,48,58)" stroke="rgb(37,48,58)" stroke-width="1" opacity="1" d="M 0.5 530 L 68.5 592 Q 91.8 612.2 118.5 629 L 158.5 650 L 241.5 682 L 278.5 700 Q 315.8 719.7 344 748.5 Q 368 773 379 810.5 L 384 831.5 L 386 850.5 L 387 851.5 L 388 871.5 L 389 872.5 L 389 889.5 L 390 890.5 L 390 915.5 L 391 920 L 0 920 L 0.5 530 Z " /><path fill="rgb(112,138,160)" stroke="rgb(112,138,160)" stroke-width="1" opacity="1" d="M 1334 0 L 1430.5 0 Q 1431.6 0.1 1431 5.5 L 1432 6.5 L 1432 32.5 L 1433 33.5 L 1433 51.5 L 1434 52.5 L 1436 84.5 L 1437 85.5 L 1439 104.5 L 1445 130.5 Q 1457.1 174.4 1487.5 200 L 1518.5 222 L 1567.5 249 L 1600.5 270 Q 1619.7 283.8 1635 301.5 L 1658 334.5 L 1701 413.5 Q 1711.6 430.9 1725.5 445 L 1750.5 464 L 1769.5 473 L 1791.5 480 L 1819.5 485 L 1825.5 485 L 1826.5 486 L 1849.5 487 L 1850.5 488 L 1920 489 L 1920 586 L 1844.5 586 L 1843.5 585 L 1829.5 585 L 1828.5 584 L 1816.5 584 L 1815.5 583 L 1799.5 582 L 1758.5 574 L 1737.5 567 L 1716.5 557 Q 1700 547.5 1687 534.5 Q 1667.5 514.5 1653 489.5 L 1617 421.5 L 1593 381.5 Q 1577 357.5 1555.5 339 L 1523.5 315 Q 1488 292.6 1449.5 273 L 1419.5 254 Q 1398.4 239.6 1382 220.5 Q 1368.1 203.9 1359 182.5 Q 1350.9 163.6 1346 141.5 L 1341 114.5 L 1339 91.5 L 1338 90.5 L 1338 80.5 L 1337 79.5 L 1336 51.5 L 1335 50.5 L 1335 28.5 L 1334 27.5 L 1334 0 Z " /><path fill="rgb(112,138,160)" stroke="rgb(112,138,160)" stroke-width="1" opacity="1" d="M 0.5 334 Q 50 382 102.5 427 Q 135.1 454.9 171.5 479 Q 200 497.5 232.5 512 Q 283 533.5 336.5 552 L 378.5 570 L 410.5 586 Q 440 601.5 466.5 620 Q 494.2 639.3 517 663.5 Q 533.8 681.7 547 703.5 L 559 727.5 L 570 759.5 L 576 785.5 L 579 809.5 L 580 810.5 L 580 817.5 L 581 818.5 L 581 826.5 L 582 827.5 L 583 851.5 L 584 852.5 L 584 868.5 L 585 869.5 L 586 920 L 489.5 920 L 489 919.5 L 489 912.5 L 488 911.5 L 488 885.5 L 487 884.5 L 487 866.5 L 486 865.5 L 484 833.5 L 483 832.5 L 483 825.5 L 482 824.5 L 480 807.5 L 473 779.5 Q 465.7 755.8 454 736.5 Q 439.4 713.1 419.5 695 Q 387.9 666.1 348.5 645 L 287.5 616 L 230.5 595 L 189.5 578 Q 163.5 566 140.5 551 L 87.5 511 L 0 431.5 L 0.5 334 Z " /><path fill="rgb(141,169,195)" stroke="rgb(141,169,195)" stroke-width="1" opacity="1" d="M 1236 0 L 1333.5 0 L 1334 0.5 L 1334 27.5 L 1335 28.5 L 1336 66.5 L 1337 67.5 L 1337 79.5 L 1338 80.5 L 1340 107.5 L 1346 141.5 L 1351 160.5 L 1359 182.5 L 1371 205.5 Q 1384.2 225.8 1402.5 241 L 1434.5 264 L 1495.5 298 L 1526.5 317 Q 1555 335.5 1577 360.5 L 1604 398.5 L 1658 497.5 Q 1671.6 519.4 1689.5 537 Q 1706.9 553.6 1730.5 564 L 1770.5 577 L 1799.5 582 L 1806.5 582 L 1807.5 583 L 1828.5 584 L 1829.5 585 L 1843.5 585 L 1844.5 586 L 1920 586 L 1920 684 L 1847.5 684 L 1846.5 683 L 1824.5 683 L 1823.5 682 L 1808.5 682 L 1807.5 681 L 1779.5 679 L 1729.5 669 Q 1677.8 654.2 1645 620.5 Q 1625.4 599.1 1610 573.5 L 1569 496.5 L 1542 450.5 Q 1523.3 421.7 1498.5 399 Q 1478.2 380.8 1454.5 366 L 1419.5 345 L 1371.5 319 L 1336.5 297 Q 1313.4 281.1 1295 260.5 Q 1277.2 240.3 1266 213.5 L 1260 198.5 L 1251 167.5 L 1244 129.5 L 1242 105.5 L 1241 104.5 L 1241 94.5 L 1240 93.5 L 1239 66.5 L 1238 65.5 L 1238 46.5 L 1237 45.5 L 1236 0 Z " /><path fill="rgb(141,169,195)" stroke="rgb(141,169,195)" stroke-width="1" opacity="1" d="M 0.5 236 Q 56.6 290.9 116.5 342 Q 157.2 376.8 202.5 407 Q 233.1 426.4 267.5 442 L 302.5 457 L 405.5 496 L 474.5 528 Q 512 547.5 545.5 571 Q 576 593 602 619.5 Q 623.7 642.3 640 670.5 L 653 697.5 L 664 729.5 L 672 763.5 L 672 768.5 L 676 787.5 L 677 802.5 L 678 803.5 L 680 836.5 L 681 837.5 L 681 852.5 L 682 853.5 L 684 920 L 586.5 920 L 586 919.5 L 586 892.5 L 585 891.5 L 585 869.5 L 584 868.5 L 583 839.5 L 582 838.5 L 582 827.5 L 581 826.5 L 579 803.5 L 573 771.5 L 564 740.5 Q 543.5 685.5 503.5 650 L 466.5 620 Q 440 601.5 410.5 586 L 378.5 570 L 336.5 552 L 297.5 538 L 232.5 512 Q 200 497.5 171.5 479 Q 135.1 454.9 102.5 427 Q 49.7 381.8 0 333.5 L 0.5 236 Z " /><path fill="rgb(163,193,221)" stroke="rgb(163,193,221)" stroke-width="1" opacity="1" d="M 1138 0 L 1235.5 0 L 1236 0.5 L 1236 19.5 L 1237 20.5 L 1238 65.5 L 1239 66.5 L 1239 80.5 L 1240 81.5 L 1242 113.5 L 1243 114.5 L 1246 142.5 L 1255 182.5 L 1266 213.5 L 1280 240.5 Q 1294.2 262.3 1313.5 279 Q 1333.3 296.2 1356.5 310 L 1426.5 349 L 1469.5 376 Q 1495.3 393.7 1516 416.5 Q 1534.1 437.4 1549 461.5 L 1569 496.5 L 1599 554.5 L 1615 581.5 Q 1630.8 606.8 1651.5 627 Q 1670.4 644.1 1694.5 656 L 1729.5 669 L 1750.5 674 L 1779.5 679 L 1807.5 681 L 1808.5 682 L 1823.5 682 L 1824.5 683 L 1920 684 L 1920 782 L 1861.5 782 L 1858.5 781 L 1820.5 781 L 1819.5 780 L 1804.5 780 L 1803.5 779 L 1789.5 779 L 1779.5 777 L 1770.5 777 L 1769.5 776 L 1754.5 775 L 1753.5 774 L 1730.5 771 L 1698.5 763 Q 1637.9 745.1 1601 703.5 Q 1577.2 676.3 1559 643.5 L 1518 565.5 L 1493 522.5 Q 1470.6 485.4 1439.5 457 Q 1416.4 436.1 1389.5 419 L 1356.5 399 L 1287.5 361 L 1254.5 340 Q 1232.6 324.9 1214 306.5 Q 1196.4 289.1 1184 266.5 L 1167 229.5 L 1156 192.5 L 1149 156.5 L 1149 150.5 L 1146 135.5 L 1146 127.5 L 1145 126.5 L 1145 117.5 L 1144 116.5 L 1143 94.5 L 1142 93.5 L 1142 79.5 L 1141 78.5 L 1140 37.5 L 1139 36.5 L 1139 8.5 L 1138 7.5 L 1138 0 Z " /><path fill="rgb(163,193,221)" stroke="rgb(163,193,221)" stroke-width="1" opacity="1" d="M 0.5 139 Q 64.9 200.6 132.5 259 Q 176.6 296.9 225.5 330 Q 266.8 357.2 314.5 378 L 478.5 442 L 549.5 476 Q 591.4 498.1 628.5 525 Q 664.5 551 694 583.5 Q 715.6 607.4 732 636.5 Q 749.5 668.5 760 707.5 L 768 742.5 L 772 773.5 L 773 774.5 L 774 790.5 L 775 791.5 L 777 824.5 L 778 825.5 L 778 839.5 L 779 840.5 L 780 885.5 L 781 886.5 L 781 915.5 L 782 920 L 684.5 920 L 684 919.5 L 684 902.5 L 683 901.5 L 683 874.5 L 682 873.5 L 681 837.5 L 680 836.5 L 680 824.5 L 679 823.5 L 679 813.5 L 678 812.5 L 676 787.5 L 670 753.5 L 661 719.5 Q 650.6 686.9 634 660.5 Q 615.4 632.1 591.5 609 L 545.5 571 Q 512 547.5 474.5 528 L 405.5 496 L 341.5 471 L 325.5 466 L 267.5 442 Q 233.1 426.4 202.5 407 Q 157.2 376.8 116.5 342 Q 56.3 290.7 0 235.5 L 0.5 139 Z " /><path fill="rgb(81,102,119)" stroke="rgb(81,102,119)" stroke-width="1" opacity="1" d="M 1431 0 L 1528.5 0 Q 1529.6 0.1 1529 5.5 L 1530 6.5 L 1530 31.5 L 1531 32.5 L 1532 58.5 L 1533 59.5 L 1534 75.5 L 1539 100.5 L 1545 118.5 L 1552 133.5 Q 1561.2 148.8 1574.5 160 L 1596.5 176 L 1636.5 198 L 1663.5 215 Q 1677.7 224.8 1689 237.5 Q 1701 250.5 1710 266.5 L 1748 335.5 Q 1758.2 351.3 1772.5 363 Q 1783 371.5 1796.5 377 L 1814.5 383 L 1833.5 387 L 1848.5 388 L 1849.5 389 L 1860.5 389 L 1861.5 390 L 1920 391 L 1920 489 L 1878.5 489 L 1877.5 488 L 1850.5 488 L 1849.5 487 L 1826.5 486 L 1784.5 478 Q 1747.4 467.6 1724 443.5 Q 1711.1 429.9 1701 413.5 L 1665 346.5 L 1650 321.5 Q 1635 298.5 1614.5 281 L 1582.5 258 L 1535.5 232 L 1504.5 213 Q 1487.3 201.6 1474 186.5 Q 1462.7 173.8 1455 157.5 L 1445 130.5 L 1441 114.5 L 1437 91.5 L 1437 85.5 L 1436 84.5 L 1435 65.5 L 1434 64.5 L 1433 33.5 L 1432 32.5 L 1432 6.5 L 1431 0 Z " /><path fill="rgb(81,102,119)" stroke="rgb(81,102,119)" stroke-width="1" opacity="1" d="M 0.5 432 L 87.5 511 L 140.5 551 Q 163.5 566 189.5 578 L 230.5 595 L 287.5 616 L 348.5 645 Q 395.5 670 431 706.5 Q 461.7 737.8 475 786.5 L 480 807.5 L 480 812.5 L 483 825.5 L 483 832.5 L 484 833.5 L 484 841.5 L 485 842.5 L 486 865.5 L 487 866.5 L 487 884.5 L 488 885.5 L 488 911.5 L 489 912.5 L 489 920 L 391.5 920 L 391 916.5 L 390 915.5 L 390 890.5 L 389 889.5 L 389 872.5 L 388 871.5 L 387 851.5 L 386 850.5 L 384 831.5 L 379 810.5 Q 366 767.5 336.5 741 Q 310.6 717.4 278.5 700 L 241.5 682 L 158.5 650 L 118.5 629 Q 91.8 612.2 68.5 592 L 0 529.5 L 0.5 432 Z " /></svg>