<svg width="540" height="960" version="1.1" xmlns="http://www.w3.org/2000/svg" desc="Created with imagetracer.js version 1.2.6" ><path fill="rgb(187,215,226)" stroke="rgb(187,215,226)" stroke-width="1" opacity="1" d="M 0 0 L 80.5 0 L 81 1.5 L 122 73.5 L 150 117 Q 152.7 115.9 152 118.5 Q 163.7 136.8 178.5 152 Q 180.8 151.3 180 153.5 L 192 165.5 L 192 167 L 195 168.5 Q 194.3 170.8 196.5 170 L 204 176 Q 202.9 178.7 205.5 178 L 221 192.5 Q 220.3 194.8 222.5 194 L 230 200 Q 228.9 202.7 231.5 202 L 233 205 L 241 211.5 L 243 214.5 L 246 216 L 265 239.5 L 281 264.5 L 289 280.5 L 293 292.5 L 296 296.5 L 313 341.5 L 326 368.5 L 326 371.5 L 329 374.5 L 339 394.5 L 348 408 Q 350.7 406.9 350 409.5 L 366.5 427 L 389.5 442 L 421.5 453 L 431.5 454 L 436.5 456 L 460.5 458 L 461.5 459 L 527.5 460 L 528.5 459 L 540 459 L 540 959.5 L 539.5 960 L 459 960 L 457.5 957 L 451 951.5 L 449.5 949 L 443 943.5 L 441.5 941 L 435 935.5 L 432.5 932 Q 430.3 932.8 431 930.5 L 413 911.5 L 413 910 Q 410.3 911.1 411 908.5 L 407 903 Q 404.3 904.1 405 901.5 L 402 897 Q 399.3 898.1 400 895.5 L 389 881.5 L 386 875 Q 383.3 876.1 384 873.5 L 378 862 Q 375.3 863.1 376 860.5 L 362 832.5 L 361 826.5 L 356 815.5 L 356 810.5 L 351 791.5 L 351 784.5 L 348 767.5 L 348 752.5 L 347 751.5 L 347 736.5 L 346 735.5 L 346 720.5 L 344 709.5 L 344 699.5 L 342 690.5 L 342 682.5 L 340 679.5 L 340 674.5 L 337 664.5 L 337 662.5 Q 329.1 633.9 309.5 617 L 307 615.5 Q 307.8 612.9 304.5 614 L 300 611 Q 301.1 608.3 298.5 609 L 288.5 602 L 264.5 590 Q 263 592.5 261.5 589 L 226.5 577 L 222.5 577 L 176.5 563 L 168.5 562 L 155.5 557 L 144.5 555 L 141.5 553 L 132.5 551 L 99.5 539 L 96.5 539 L 57.5 523 L 48.5 521 L 34.5 514 L 0 501 L 0 0 Z " /><path fill="rgb(182,210,221)" stroke="rgb(182,210,221)" stroke-width="1" opacity="1" d="M 81.5 1 L 84 4.5 L 82 3.5 L 81.5 1 Z " /><path fill="rgb(182,210,221)" stroke="rgb(182,210,221)" stroke-width="1" opacity="1" d="M 85.5 8 L 88 11.5 L 86 10.5 L 85.5 8 Z " /><path fill="rgb(182,210,221)" stroke="rgb(182,210,221)" stroke-width="1" opacity="1" d="M 88.5 13 L 90 15.5 L 87 15.5 L 88.5 13 Z " /><path fill="rgb(182,210,221)" stroke="rgb(182,210,221)" stroke-width="1" opacity="1" d="M 90.5 17 L 97 27.5 L 94 25.5 L 90.5 17 Z " /><path fill="rgb(182,210,221)" stroke="rgb(182,210,221)" stroke-width="1" opacity="1" d="M 97.5 29 L 101 34.5 L 99 33.5 L 97.5 29 Z " /><path fill="rgb(182,210,221)" stroke="rgb(182,210,221)" stroke-width="1" opacity="1" d="M 105.5 43 L 111 52.5 L 110 52.5 L 105 44.5 L 105.5 43 Z " /><path fill="rgb(182,210,221)" stroke="rgb(182,210,221)" stroke-width="1" opacity="1" d="M 114.5 59 L 115.5 61 L 114.5 59 Z " /><path fill="rgb(182,210,221)" stroke="rgb(182,210,221)" stroke-width="1" opacity="1" d="M 117.5 64 L 120 67.5 L 118 66.5 L 117.5 64 Z " /><path fill="rgb(182,210,221)" stroke="rgb(182,210,221)" stroke-width="1" opacity="1" d="M 120.5 69 L 124 74.5 L 122 73.5 L 120.5 69 Z " /><path fill="rgb(182,210,221)" stroke="rgb(182,210,221)" stroke-width="1" opacity="1" d="M 125.5 77 L 137 94.5 L 134 92.5 L 125.5 77 Z " /><path fill="rgb(182,210,221)" stroke="rgb(182,210,221)" stroke-width="1" opacity="1" d="M 137.5 96 L 152 116.5 L 150 117 L 137 97.5 L 137.5 96 Z " /><path fill="rgb(182,210,221)" stroke="rgb(182,210,221)" stroke-width="1" opacity="1" d="M 152.5 118 L 159 126.5 L 155 123.5 L 152.5 118 Z " /><path fill="rgb(182,210,221)" stroke="rgb(182,210,221)" stroke-width="1" opacity="1" d="M 160.5 129 L 165 134.5 L 161 131.5 L 160.5 129 Z " /><path fill="rgb(182,210,221)" stroke="rgb(182,210,221)" stroke-width="1" opacity="1" d="M 166.5 136 L 179 151.5 L 177 150.5 L 166 137.5 L 166.5 136 Z " /><path fill="rgb(182,210,221)" stroke="rgb(182,210,221)" stroke-width="1" opacity="1" d="M 180.5 152 L 203 175.5 L 196.5 170 Q 194.3 170.8 195 168.5 L 192 167 L 192 165.5 L 180 153.5 L 180.5 152 Z " /><path fill="rgb(182,210,221)" stroke="rgb(182,210,221)" stroke-width="1" opacity="1" d="M 204.5 176 L 216.5 188 L 218 188 Q 216.9 190.7 219.5 190 L 228.5 200 L 221 194 L 219.5 191 L 204 178 L 204.5 176 Z " /><path fill="rgb(182,210,221)" stroke="rgb(182,210,221)" stroke-width="1" opacity="1" d="M 230.5 200 L 232.5 203 L 230 202 L 230.5 200 Z " /><path fill="rgb(182,210,221)" stroke="rgb(182,210,221)" stroke-width="1" opacity="1" d="M 233.5 204 L 242 211.5 L 241.5 213 L 234.5 205 L 233.5 204 Z " /><path fill="rgb(182,210,221)" stroke="rgb(182,210,221)" stroke-width="1" opacity="1" d="M 243.5 213 L 245 215.5 L 243 214.5 L 243.5 213 Z " /><path fill="rgb(182,210,221)" stroke="rgb(182,210,221)" stroke-width="1" opacity="1" d="M 246.5 216 L 253 223.5 L 246 217.5 L 246.5 216 Z " /><path fill="rgb(182,210,221)" stroke="rgb(182,210,221)" stroke-width="1" opacity="1" d="M 253.5 225 Q 269.6 240.9 280 262.5 L 279 262.5 L 270 246.5 L 253.5 225 Z " /><path fill="rgb(182,210,221)" stroke="rgb(182,210,221)" stroke-width="1" opacity="1" d="M 281.5 265 L 283 267.5 L 281 266.5 L 281.5 265 Z " /><path fill="rgb(182,210,221)" stroke="rgb(182,210,221)" stroke-width="1" opacity="1" d="M 283.5 269 L 288 278.5 L 287 278.5 L 283.5 269 Z " /><path fill="rgb(182,210,221)" stroke="rgb(182,210,221)" stroke-width="1" opacity="1" d="M 292.5 288 L 296 295.5 L 294 294.5 L 292.5 288 Z " /><path fill="rgb(182,210,221)" stroke="rgb(182,210,221)" stroke-width="1" opacity="1" d="M 297.5 300 L 299 303.5 L 297 304.5 L 298 302.5 L 297.5 300 Z " /><path fill="rgb(182,210,221)" stroke="rgb(182,210,221)" stroke-width="1" opacity="1" d="M 302.5 312 L 305 318.5 L 304 318.5 Q 301 316 302.5 312 Z " /><path fill="rgb(182,210,221)" stroke="rgb(182,210,221)" stroke-width="1" opacity="1" d="M 305.5 320 L 307 323.5 L 306 323.5 L 305.5 320 Z " /><path fill="rgb(182,210,221)" stroke="rgb(182,210,221)" stroke-width="1" opacity="1" d="M 313.5 340 L 317 347.5 L 316 347.5 L 314.5 344 L 313 344.5 L 314 342.5 L 313.5 340 Z " /><path fill="rgb(182,210,221)" stroke="rgb(182,210,221)" stroke-width="1" opacity="1" d="M 318.5 352 L 320 354.5 L 318 353.5 L 318.5 352 Z " /><path fill="rgb(182,210,221)" stroke="rgb(182,210,221)" stroke-width="1" opacity="1" d="M 320.5 356 L 324 363.5 L 323 363.5 L 320.5 356 Z " /><path fill="rgb(182,210,221)" stroke="rgb(182,210,221)" stroke-width="1" opacity="1" d="M 324.5 365 L 329 373.5 L 326 371.5 L 324.5 365 Z " /><path fill="rgb(182,210,221)" stroke="rgb(182,210,221)" stroke-width="1" opacity="1" d="M 329.5 375 L 336 386.5 L 334 385.5 L 329 376.5 L 329.5 375 Z " /><path fill="rgb(182,210,221)" stroke="rgb(182,210,221)" stroke-width="1" opacity="1" d="M 337.5 390 L 343 398.5 L 341 397.5 L 337.5 390 Z " /><path fill="rgb(182,210,221)" stroke="rgb(182,210,221)" stroke-width="1" opacity="1" d="M 344.5 401 L 349 407.5 L 348 407.5 L 344.5 401 Z " /><path fill="rgb(182,210,221)" stroke="rgb(182,210,221)" stroke-width="1" opacity="1" d="M 350.5 409 L 351.5 411 L 350.5 409 Z " /><path fill="rgb(182,210,221)" stroke="rgb(182,210,221)" stroke-width="1" opacity="1" d="M 352.5 412 Q 354.8 411.3 354 413.5 L 366.5 427 L 352.5 412 Z " /><path fill="rgb(182,210,221)" stroke="rgb(182,210,221)" stroke-width="1" opacity="1" d="M 368.5 427 L 380 435.5 L 378.5 435 Q 371 432.3 368.5 427 Z " /><path fill="rgb(182,210,221)" stroke="rgb(182,210,221)" stroke-width="1" opacity="1" d="M 381.5 436 L 387 439.5 L 385.5 440 L 381.5 436 Z " /><path fill="rgb(182,210,221)" stroke="rgb(182,210,221)" stroke-width="1" opacity="1" d="M 388.5 440 L 395 443.5 L 393.5 443 Q 388.5 442.8 388.5 440 Z " /><path fill="rgb(182,210,221)" stroke="rgb(182,210,221)" stroke-width="1" opacity="1" d="M 396.5 444 L 401 445.5 L 398.5 446 L 396.5 444 Z " /><path fill="rgb(182,210,221)" stroke="rgb(182,210,221)" stroke-width="1" opacity="1" d="M 410.5 449 L 413 449.5 L 410.5 450 L 410.5 449 Z " /><path fill="rgb(182,210,221)" stroke="rgb(182,210,221)" stroke-width="1" opacity="1" d="M 414.5 450 L 417 450.5 L 414.5 451 L 414.5 450 Z " /><path fill="rgb(182,210,221)" stroke="rgb(182,210,221)" stroke-width="1" opacity="1" d="M 421.5 452 L 424 452.5 L 421.5 453 L 421.5 452 Z " /><path fill="rgb(182,210,221)" stroke="rgb(182,210,221)" stroke-width="1" opacity="1" d="M 426.5 453 L 429 453.5 L 426.5 454 L 426.5 453 Z " /><path fill="rgb(182,210,221)" stroke="rgb(182,210,221)" stroke-width="1" opacity="1" d="M 436.5 455 L 440 455.5 L 436.5 456 L 436.5 455 Z " /><path fill="rgb(182,210,221)" stroke="rgb(182,210,221)" stroke-width="1" opacity="1" d="M 444.5 456 L 448 456.5 L 444.5 457 L 444.5 456 Z " /><path fill="rgb(182,210,221)" stroke="rgb(182,210,221)" stroke-width="1" opacity="1" d="M 453.5 457 L 458 457.5 L 453.5 458 L 453.5 457 Z " /><path fill="rgb(182,210,221)" stroke="rgb(182,210,221)" stroke-width="1" opacity="1" d="M 461.5 458 L 472 458.5 L 461.5 459 L 461.5 458 Z " /><path fill="rgb(182,210,221)" stroke="rgb(182,210,221)" stroke-width="1" opacity="1" d="M 494.5 459 L 528 459.5 L 494.5 460 L 494.5 459 Z " /><path fill="rgb(182,210,221)" stroke="rgb(182,210,221)" stroke-width="1" opacity="1" d="M 0.5 501 L 7 503.5 L 5.5 504 L 0.5 502 L 0.5 501 Z " /><path fill="rgb(182,210,221)" stroke="rgb(182,210,221)" stroke-width="1" opacity="1" d="M 8.5 504 L 12 505.5 L 10.5 506 L 8.5 504 Z " /><path fill="rgb(182,210,221)" stroke="rgb(182,210,221)" stroke-width="1" opacity="1" d="M 20.5 509 L 24 510.5 L 22.5 511 L 20.5 509 Z " /><path fill="rgb(182,210,221)" stroke="rgb(182,210,221)" stroke-width="1" opacity="1" d="M 30.5 513 L 37 515.5 L 35.5 516 L 30.5 514 L 30.5 513 Z " /><path fill="rgb(182,210,221)" stroke="rgb(182,210,221)" stroke-width="1" opacity="1" d="M 40.5 517 L 44 518.5 L 42.5 519 L 40.5 517 Z " /><path fill="rgb(182,210,221)" stroke="rgb(182,210,221)" stroke-width="1" opacity="1" d="M 56.5 523 L 60 524.5 L 58.5 525 L 56.5 523 Z " /><path fill="rgb(182,210,221)" stroke="rgb(182,210,221)" stroke-width="1" opacity="1" d="M 66.5 527 L 70 528.5 L 68.5 529 L 66.5 527 Z " /><path fill="rgb(182,210,221)" stroke="rgb(182,210,221)" stroke-width="1" opacity="1" d="M 76.5 531 L 80 532.5 L 78.5 533 L 76.5 531 Z " /><path fill="rgb(182,210,221)" stroke="rgb(182,210,221)" stroke-width="1" opacity="1" d="M 81.5 533 L 86 534.5 L 84.5 535 L 81.5 534 L 81.5 533 Z " /><path fill="rgb(182,210,221)" stroke="rgb(182,210,221)" stroke-width="1" opacity="1" d="M 104.5 541 L 108 542.5 L 106.5 543 L 104.5 541 Z " /><path fill="rgb(182,210,221)" stroke="rgb(182,210,221)" stroke-width="1" opacity="1" d="M 118.5 546 L 123 547.5 L 121.5 548 L 118.5 547 L 118.5 546 Z " /><path fill="rgb(182,210,221)" stroke="rgb(182,210,221)" stroke-width="1" opacity="1" d="M 134.5 551 L 139 552.5 L 136.5 553 L 134.5 551 Z " /><path fill="rgb(182,210,221)" stroke="rgb(182,210,221)" stroke-width="1" opacity="1" d="M 152.5 557 L 158 558.5 L 156.5 559 L 152.5 558 L 152.5 557 Z " /><path fill="rgb(182,210,221)" stroke="rgb(182,210,221)" stroke-width="1" opacity="1" d="M 171.5 562 L 187 566.5 L 184.5 567 L 173.5 564 L 171.5 562 Z " /><path fill="rgb(182,210,221)" stroke="rgb(182,210,221)" stroke-width="1" opacity="1" d="M 225.5 577 L 233 579.5 L 230.5 580 L 225.5 578 L 225.5 577 Z " /><path fill="rgb(182,210,221)" stroke="rgb(182,210,221)" stroke-width="1" opacity="1" d="M 234.5 580 L 239 581.5 L 236.5 582 L 234.5 580 Z " /><path fill="rgb(182,210,221)" stroke="rgb(182,210,221)" stroke-width="1" opacity="1" d="M 240.5 582 L 245 583.5 L 243.5 584 L 240.5 583 L 240.5 582 Z " /><path fill="rgb(182,210,221)" stroke="rgb(182,210,221)" stroke-width="1" opacity="1" d="M 249.5 585 L 256 587.5 L 254.5 588 L 249.5 586 L 249.5 585 Z " /><path fill="rgb(182,210,221)" stroke="rgb(182,210,221)" stroke-width="1" opacity="1" d="M 257.5 588 L 263 590.5 L 261.5 590 Q 256.7 590 257.5 588 Z " /><path fill="rgb(182,210,221)" stroke="rgb(182,210,221)" stroke-width="1" opacity="1" d="M 264.5 590 L 265.5 592 Q 262.7 592.7 264.5 590 Z " /><path fill="rgb(182,210,221)" stroke="rgb(182,210,221)" stroke-width="1" opacity="1" d="M 269.5 593 L 275 595.5 L 273.5 595 Q 268.7 595.1 269.5 593 Z " /><path fill="rgb(182,210,221)" stroke="rgb(182,210,221)" stroke-width="1" opacity="1" d="M 276.5 596 L 279 597.5 L 277.5 597 L 276.5 596 Z " /><path fill="rgb(182,210,221)" stroke="rgb(182,210,221)" stroke-width="1" opacity="1" d="M 282.5 599 L 290 603.5 L 288.5 603 Q 282.9 602.2 282.5 599 Z " /><path fill="rgb(182,210,221)" stroke="rgb(182,210,221)" stroke-width="1" opacity="1" d="M 291.5 604 L 292.5 606 L 291.5 604 Z " /><path fill="rgb(182,210,221)" stroke="rgb(182,210,221)" stroke-width="1" opacity="1" d="M 297.5 608 L 300 609 L 299.5 611 L 297.5 608 Z " /><path fill="rgb(182,210,221)" stroke="rgb(182,210,221)" stroke-width="1" opacity="1" d="M 301.5 611 L 302.5 613 L 301.5 611 Z " /><path fill="rgb(182,210,221)" stroke="rgb(182,210,221)" stroke-width="1" opacity="1" d="M 304.5 614 Q 307.8 612.9 307 615.5 L 316 623.5 L 324 633.5 L 320 630.5 L 311.5 620 L 308.5 618 L 304.5 614 Z " /><path fill="rgb(182,210,221)" stroke="rgb(182,210,221)" stroke-width="1" opacity="1" d="M 324.5 635 L 327 638.5 L 325 637.5 L 324.5 635 Z " /><path fill="rgb(182,210,221)" stroke="rgb(182,210,221)" stroke-width="1" opacity="1" d="M 327.5 640 L 331 646.5 L 330 646.5 L 327.5 640 Z " /><path fill="rgb(182,210,221)" stroke="rgb(182,210,221)" stroke-width="1" opacity="1" d="M 336.5 661 L 338 663.5 L 336 664 L 336.5 661 Z " /><path fill="rgb(182,210,221)" stroke="rgb(182,210,221)" stroke-width="1" opacity="1" d="M 282.5 672 L 283.5 674 L 282.5 672 Z " /><path fill="rgb(182,210,221)" stroke="rgb(182,210,221)" stroke-width="1" opacity="1" d="M 341.5 682 L 342 687.5 L 341 687.5 L 341.5 682 Z " /><path fill="rgb(182,210,221)" stroke="rgb(182,210,221)" stroke-width="1" opacity="1" d="M 342.5 691 L 343 693.5 L 342 693.5 L 342.5 691 Z " /><path fill="rgb(182,210,221)" stroke="rgb(182,210,221)" stroke-width="1" opacity="1" d="M 343.5 699 L 344 703.5 L 343 703.5 L 343.5 699 Z " /><path fill="rgb(182,210,221)" stroke="rgb(182,210,221)" stroke-width="1" opacity="1" d="M 344.5 710 L 345 714.5 L 344 714.5 L 344.5 710 Z " /><path fill="rgb(182,210,221)" stroke="rgb(182,210,221)" stroke-width="1" opacity="1" d="M 345.5 720 L 346 727.5 L 345 727.5 L 345.5 720 Z " /><path fill="rgb(182,210,221)" stroke="rgb(182,210,221)" stroke-width="1" opacity="1" d="M 346.5 736 L 347 743.5 L 346 743.5 L 346.5 736 Z " /><path fill="rgb(182,210,221)" stroke="rgb(182,210,221)" stroke-width="1" opacity="1" d="M 347.5 752 L 348 759.5 L 347 759.5 L 347.5 752 Z " /><path fill="rgb(182,210,221)" stroke="rgb(182,210,221)" stroke-width="1" opacity="1" d="M 348.5 768 L 349 770.5 L 348 770.5 L 348.5 768 Z " /><path fill="rgb(182,210,221)" stroke="rgb(182,210,221)" stroke-width="1" opacity="1" d="M 350.5 784 L 351 787.5 L 350 787.5 L 350.5 784 Z " /><path fill="rgb(182,210,221)" stroke="rgb(182,210,221)" stroke-width="1" opacity="1" d="M 352.5 797 L 353 799.5 L 352 799.5 L 352.5 797 Z " /><path fill="rgb(182,210,221)" stroke="rgb(182,210,221)" stroke-width="1" opacity="1" d="M 353.5 802 L 354 804.5 L 353 804.5 L 353.5 802 Z " /><path fill="rgb(182,210,221)" stroke="rgb(182,210,221)" stroke-width="1" opacity="1" d="M 355.5 810 L 356 812.5 L 355 812.5 L 355.5 810 Z " /><path fill="rgb(182,210,221)" stroke="rgb(182,210,221)" stroke-width="1" opacity="1" d="M 359.5 824 L 362 831.5 L 361 831.5 L 359.5 824 Z " /><path fill="rgb(182,210,221)" stroke="rgb(182,210,221)" stroke-width="1" opacity="1" d="M 365.5 840 L 367 842.5 L 365 841.5 L 365.5 840 Z " /><path fill="rgb(182,210,221)" stroke="rgb(182,210,221)" stroke-width="1" opacity="1" d="M 367.5 844 L 375 858.5 L 373 857.5 L 367 845.5 L 367.5 844 Z " /><path fill="rgb(182,210,221)" stroke="rgb(182,210,221)" stroke-width="1" opacity="1" d="M 376.5 862 Q 378.8 861.3 378 863.5 L 381 868.5 L 379 867.5 L 376.5 862 Z " /><path fill="rgb(182,210,221)" stroke="rgb(182,210,221)" stroke-width="1" opacity="1" d="M 381.5 870 L 382.5 872 L 381.5 870 Z " /><path fill="rgb(182,210,221)" stroke="rgb(182,210,221)" stroke-width="1" opacity="1" d="M 334.5 872 L 333.5 874 L 334.5 872 Z " /><path fill="rgb(182,210,221)" stroke="rgb(182,210,221)" stroke-width="1" opacity="1" d="M 384.5 875 Q 386.8 874.3 386 876.5 L 400 895.5 L 397 893.5 L 384.5 875 Z " /><path fill="rgb(182,210,221)" stroke="rgb(182,210,221)" stroke-width="1" opacity="1" d="M 401.5 897 L 405 901.5 L 401 898.5 L 401.5 897 Z " /><path fill="rgb(182,210,221)" stroke="rgb(182,210,221)" stroke-width="1" opacity="1" d="M 405.5 903 Q 407.8 902.3 407 904.5 L 411 910 Q 413.7 908.9 413 911.5 L 431 930.5 L 431 932 L 435 934.5 L 440.5 941 L 443 942.5 L 448.5 949 L 451 950.5 L 456.5 957 L 459 958.5 L 458.5 960 Q 432 935.7 410 908 Q 407.3 909.1 408 906.5 L 405.5 903 Z " /><path fill="rgb(139,161,172)" stroke="rgb(139,161,172)" stroke-width="1" opacity="1" d="M 140.5 0 L 141.5 2 L 140.5 0 Z " /><path fill="rgb(139,161,172)" stroke="rgb(139,161,172)" stroke-width="1" opacity="1" d="M 195.5 0 L 196.5 2 Q 194.3 1.3 195 3.5 L 192 5.5 L 195.5 0 Z " /><path fill="rgb(139,161,172)" stroke="rgb(139,161,172)" stroke-width="1" opacity="1" d="M 197.5 3 L 196.5 5 L 197.5 3 Z " /><path fill="rgb(139,161,172)" stroke="rgb(139,161,172)" stroke-width="1" opacity="1" d="M 198.5 5 Q 201.5 6.5 198.5 8 L 198.5 5 Z " /><path fill="rgb(139,161,172)" stroke="rgb(139,161,172)" stroke-width="1" opacity="1" d="M 144.5 8 L 147 8.5 L 145.5 11 L 144.5 8 Z " /><path fill="rgb(139,161,172)" stroke="rgb(139,161,172)" stroke-width="1" opacity="1" d="M 200.5 8 L 203 12.5 L 201 13 L 200.5 8 Z " /><path fill="rgb(139,161,172)" stroke="rgb(139,161,172)" stroke-width="1" opacity="1" d="M 203.5 14 L 204.5 16 L 203.5 14 Z " /><path fill="rgb(139,161,172)" stroke="rgb(139,161,172)" stroke-width="1" opacity="1" d="M 150.5 17 L 149.5 19 L 150.5 17 Z " /><path fill="rgb(139,161,172)" stroke="rgb(139,161,172)" stroke-width="1" opacity="1" d="M 201.5 19 L 202.5 21 L 201.5 19 Z " /><path fill="rgb(139,161,172)" stroke="rgb(139,161,172)" stroke-width="1" opacity="1" d="M 206.5 19 L 211 26.5 L 209 25.5 L 206.5 21 L 205 21.5 L 206.5 19 Z " /><path fill="rgb(139,161,172)" stroke="rgb(139,161,172)" stroke-width="1" opacity="1" d="M 212.5 30 L 219 40.5 L 218 42.5 L 220 42.5 Q 218.5 45.5 217 42.5 L 216 40.5 L 217 38.5 L 212.5 30 Z " /><path fill="rgb(139,161,172)" stroke="rgb(139,161,172)" stroke-width="1" opacity="1" d="M 160.5 36 L 165 41.5 L 164 43.5 L 167 44.5 L 164.5 45 L 163 43.5 L 162 41.5 L 162 39.5 Q 162.7 36.9 160 38 L 160.5 36 Z " /><path fill="rgb(139,161,172)" stroke="rgb(139,161,172)" stroke-width="1" opacity="1" d="M 220.5 44 Q 223.5 45.5 220.5 47 L 220.5 44 Z " /><path fill="rgb(139,161,172)" stroke="rgb(139,161,172)" stroke-width="1" opacity="1" d="M 222.5 47 L 228 55.5 L 226 54.5 L 222 48.5 L 222.5 47 Z " /><path fill="rgb(139,161,172)" stroke="rgb(139,161,172)" stroke-width="1" opacity="1" d="M 171.5 55 L 172.5 57 L 171.5 55 Z " /><path fill="rgb(139,161,172)" stroke="rgb(139,161,172)" stroke-width="1" opacity="1" d="M 227 57 L 230 58.5 L 231 60.5 L 228 60.5 L 229 58.5 L 227 59.5 L 225.5 62 L 226 60.5 L 227 57 Z " /><path fill="rgb(139,161,172)" stroke="rgb(139,161,172)" stroke-width="1" opacity="1" d="M 227.5 62 L 226.5 64 L 227.5 62 Z " /><path fill="rgb(139,161,172)" stroke="rgb(139,161,172)" stroke-width="1" opacity="1" d="M 231.5 62 L 230.5 64 L 231.5 62 Z " /><path fill="rgb(139,161,172)" stroke="rgb(139,161,172)" stroke-width="1" opacity="1" d="M 182.5 64 L 182 65.5 L 179.5 70 L 180 68.5 L 182.5 64 Z " /><path fill="rgb(139,161,172)" stroke="rgb(139,161,172)" stroke-width="1" opacity="1" d="M 234.5 67 L 235.5 69 L 234.5 67 Z " /><path fill="rgb(139,161,172)" stroke="rgb(139,161,172)" stroke-width="1" opacity="1" d="M 236.5 70 L 247 84.5 L 243.5 82 L 242 83.5 L 241.5 85 L 241 83.5 L 243 80.5 L 241 80.5 L 241 78.5 L 238 74.5 L 238 72 Q 234.8 73 236.5 70 Z " /><path fill="rgb(139,161,172)" stroke="rgb(139,161,172)" stroke-width="1" opacity="1" d="M 190.5 80 L 192 82.5 L 190 81.5 L 190.5 80 Z " /><path fill="rgb(139,161,172)" stroke="rgb(139,161,172)" stroke-width="1" opacity="1" d="M 190.5 84 L 192 86.5 L 191 86.5 L 190.5 84 Z " /><path fill="rgb(139,161,172)" stroke="rgb(139,161,172)" stroke-width="1" opacity="1" d="M 242.5 86 L 241.5 88 L 242.5 86 Z " /><path fill="rgb(139,161,172)" stroke="rgb(139,161,172)" stroke-width="1" opacity="1" d="M 247.5 86 L 246.5 88 L 247.5 86 Z " /><path fill="rgb(139,161,172)" stroke="rgb(139,161,172)" stroke-width="1" opacity="1" d="M 248.5 88 Q 267.2 113.8 290.5 135 L 303 145 L 302.5 147 L 294 140 L 294 138 L 292 138 Q 293.1 135.3 290.5 136 L 288 135.5 L 289 134.5 L 283.5 129 L 280 131.5 L 281 129.5 L 280.5 128 L 282.5 129 L 279.5 125 Q 277.3 125.8 278 123.5 L 275.5 121 L 272 123.5 L 273 121.5 L 272.5 120 L 274.5 121 L 268 113.5 L 266.5 111 L 265 111.5 L 265.5 113 Q 263.8 109.9 262 111.5 L 265 110.5 L 250 90 Q 246.8 91 248.5 88 Z " /><path fill="rgb(139,161,172)" stroke="rgb(139,161,172)" stroke-width="1" opacity="1" d="M 197.5 96 L 198.5 98 L 197.5 96 Z " /><path fill="rgb(139,161,172)" stroke="rgb(139,161,172)" stroke-width="1" opacity="1" d="M 252.5 98 L 253.5 100 L 252.5 98 Z " /><path fill="rgb(139,161,172)" stroke="rgb(139,161,172)" stroke-width="1" opacity="1" d="M 199.5 99 L 203 103.5 L 202 103.5 L 199.5 99 Z " /><path fill="rgb(139,161,172)" stroke="rgb(139,161,172)" stroke-width="1" opacity="1" d="M 207.5 104 L 206.5 106 L 207.5 104 Z " /><path fill="rgb(139,161,172)" stroke="rgb(139,161,172)" stroke-width="1" opacity="1" d="M 210.5 113 L 212 115.5 L 210 114.5 L 210.5 113 Z " /><path fill="rgb(139,161,172)" stroke="rgb(139,161,172)" stroke-width="1" opacity="1" d="M 215.5 114 L 214.5 116 L 215.5 114 Z " /><path fill="rgb(139,161,172)" stroke="rgb(139,161,172)" stroke-width="1" opacity="1" d="M 214.5 119 Q 216.2 122.1 218 120.5 L 216.5 123 L 214.5 119 Z " /><path fill="rgb(139,161,172)" stroke="rgb(139,161,172)" stroke-width="1" opacity="1" d="M 223.5 120 L 223 121.5 L 222.5 123 L 222 121.5 L 223.5 120 Z " /><path fill="rgb(139,161,172)" stroke="rgb(139,161,172)" stroke-width="1" opacity="1" d="M 218.5 124 L 219.5 126 L 218.5 124 Z " /><path fill="rgb(139,161,172)" stroke="rgb(139,161,172)" stroke-width="1" opacity="1" d="M 222.5 128 L 225 128.5 L 223.5 131 L 222.5 128 Z " /><path fill="rgb(139,161,172)" stroke="rgb(139,161,172)" stroke-width="1" opacity="1" d="M 230.5 137 L 232.5 140 L 230.5 137 Z " /><path fill="rgb(139,161,172)" stroke="rgb(139,161,172)" stroke-width="1" opacity="1" d="M 297.5 144 L 298.5 146 L 297.5 144 Z " /><path fill="rgb(139,161,172)" stroke="rgb(139,161,172)" stroke-width="1" opacity="1" d="M 238.5 145 L 241 145.5 Q 238.9 148.8 238.5 145 Z " /><path fill="rgb(139,161,172)" stroke="rgb(139,161,172)" stroke-width="1" opacity="1" d="M 304.5 147 L 328 171.5 L 326 172 L 321 164 L 318 162.5 L 311.5 155 L 309 153.5 L 306.5 150 L 304.5 151 L 303.5 149 L 305 149.5 L 304.5 147 Z " /><path fill="rgb(139,161,172)" stroke="rgb(139,161,172)" stroke-width="1" opacity="1" d="M 246 148 L 248 148.5 L 246 149.5 L 246 148 Z " /><path fill="rgb(139,161,172)" stroke="rgb(139,161,172)" stroke-width="1" opacity="1" d="M 256.5 160 L 256.5 163 Q 253.5 161.5 256.5 160 Z " /><path fill="rgb(139,161,172)" stroke="rgb(139,161,172)" stroke-width="1" opacity="1" d="M 328.5 173 L 335 180.5 L 331.5 178 L 330 178.5 L 329 176.5 L 330 175.5 L 328.5 173 Z " /><path fill="rgb(139,161,172)" stroke="rgb(139,161,172)" stroke-width="1" opacity="1" d="M 271.5 176 L 274 176.5 Q 271.9 179.8 271.5 176 Z " /><path fill="rgb(139,161,172)" stroke="rgb(139,161,172)" stroke-width="1" opacity="1" d="M 279.5 176 L 278.5 178 L 279.5 176 Z " /><path fill="rgb(139,161,172)" stroke="rgb(139,161,172)" stroke-width="1" opacity="1" d="M 335.5 182 L 336.5 184 L 334 183.5 L 335.5 182 Z " /><path fill="rgb(139,161,172)" stroke="rgb(139,161,172)" stroke-width="1" opacity="1" d="M 336 185 L 339 186.5 L 336 186.5 L 336 185 Z " /><path fill="rgb(139,161,172)" stroke="rgb(139,161,172)" stroke-width="1" opacity="1" d="M 339.5 188 L 340.5 190 L 339.5 188 Z " /><path fill="rgb(139,161,172)" stroke="rgb(139,161,172)" stroke-width="1" opacity="1" d="M 341.5 191 L 345 196.5 L 342 194.5 L 341.5 191 Z " /><path fill="rgb(139,161,172)" stroke="rgb(139,161,172)" stroke-width="1" opacity="1" d="M 295.5 192 L 294.5 194 L 295.5 192 Z " /><path fill="rgb(139,161,172)" stroke="rgb(139,161,172)" stroke-width="1" opacity="1" d="M 291.5 194 L 291 195.5 L 292 197.5 L 290 196.5 L 291.5 194 Z " /><path fill="rgb(139,161,172)" stroke="rgb(139,161,172)" stroke-width="1" opacity="1" d="M 346.5 200 L 348 202.5 L 346 201.5 L 346.5 200 Z " /><path fill="rgb(139,161,172)" stroke="rgb(139,161,172)" stroke-width="1" opacity="1" d="M 348.5 204 L 347.5 206 L 348.5 204 Z " /><path fill="rgb(139,161,172)" stroke="rgb(139,161,172)" stroke-width="1" opacity="1" d="M 350.5 208 L 352 210.5 L 350 209.5 L 350.5 208 Z " /><path fill="rgb(139,161,172)" stroke="rgb(139,161,172)" stroke-width="1" opacity="1" d="M 352.5 212 L 355 217.5 L 353 218.5 L 354 216.5 L 352.5 212 Z " /><path fill="rgb(139,161,172)" stroke="rgb(139,161,172)" stroke-width="1" opacity="1" d="M 310.5 216 L 312 218.5 L 311 218.5 L 310.5 217 L 308 218.5 L 310.5 216 Z " /><path fill="rgb(139,161,172)" stroke="rgb(139,161,172)" stroke-width="1" opacity="1" d="M 355.5 219 L 355 220.5 L 354.5 222 L 354 220.5 L 355.5 219 Z " /><path fill="rgb(139,161,172)" stroke="rgb(139,161,172)" stroke-width="1" opacity="1" d="M 355.5 224 L 356 226.5 L 354.5 229 L 354 227.5 L 355.5 224 Z " /><path fill="rgb(139,161,172)" stroke="rgb(139,161,172)" stroke-width="1" opacity="1" d="M 358.5 226 L 360 229.5 L 359 229.5 L 358.5 226 Z " /><path fill="rgb(139,161,172)" stroke="rgb(139,161,172)" stroke-width="1" opacity="1" d="M 313.5 228 L 315 230.5 L 314 230.5 L 313.5 228 Z " /><path fill="rgb(139,161,172)" stroke="rgb(139,161,172)" stroke-width="1" opacity="1" d="M 360.5 231 L 362 234.5 L 360 235.5 L 360.5 231 Z " /><path fill="rgb(139,161,172)" stroke="rgb(139,161,172)" stroke-width="1" opacity="1" d="M 316.5 232 L 315.5 234 L 316.5 232 Z " /><path fill="rgb(139,161,172)" stroke="rgb(139,161,172)" stroke-width="1" opacity="1" d="M 362.5 236 L 364 239.5 L 363 239.5 L 362.5 236 Z " /><path fill="rgb(139,161,172)" stroke="rgb(139,161,172)" stroke-width="1" opacity="1" d="M 362.5 247 L 363.5 249 L 362.5 247 Z " /><path fill="rgb(139,161,172)" stroke="rgb(139,161,172)" stroke-width="1" opacity="1" d="M 366.5 248 Q 368.8 247.3 368 249.5 L 366.5 248 Z " /><path fill="rgb(139,161,172)" stroke="rgb(139,161,172)" stroke-width="1" opacity="1" d="M 368.5 256 L 369 258.5 L 368 258.5 L 368.5 256 Z " /><path fill="rgb(139,161,172)" stroke="rgb(139,161,172)" stroke-width="1" opacity="1" d="M 371.5 258 L 372 259.5 L 370 260.5 L 371.5 258 Z " /><path fill="rgb(139,161,172)" stroke="rgb(139,161,172)" stroke-width="1" opacity="1" d="M 370.5 263 L 371.5 265 L 370.5 263 Z " /><path fill="rgb(139,161,172)" stroke="rgb(139,161,172)" stroke-width="1" opacity="1" d="M 373.5 263 L 375 266.5 L 374 266.5 L 373.5 263 Z " /><path fill="rgb(139,161,172)" stroke="rgb(139,161,172)" stroke-width="1" opacity="1" d="M 369.5 265 L 371 269.5 L 370 269.5 L 369.5 265 Z " /><path fill="rgb(139,161,172)" stroke="rgb(139,161,172)" stroke-width="1" opacity="1" d="M 377.5 272 L 389 293.5 L 387.5 293 Q 385.3 293.8 386 291.5 L 377 273.5 L 377.5 272 Z " /><path fill="rgb(139,161,172)" stroke="rgb(139,161,172)" stroke-width="1" opacity="1" d="M 337.5 283 L 339 285.5 L 337 284.5 L 337.5 283 Z " /><path fill="rgb(139,161,172)" stroke="rgb(139,161,172)" stroke-width="1" opacity="1" d="M 389.5 295 Q 398 310 411 320.5 Q 409 324 407 319.5 L 407.5 318 Q 405.3 318.8 406 316.5 L 401.5 313 L 400 313.5 L 401 311.5 L 389.5 296 L 388 296.5 L 389.5 295 Z " /><path fill="rgb(139,161,172)" stroke="rgb(139,161,172)" stroke-width="1" opacity="1" d="M 394.5 307 Q 396.8 306.3 396 308.5 L 396.5 310 L 394.5 307 Z " /><path fill="rgb(139,161,172)" stroke="rgb(139,161,172)" stroke-width="1" opacity="1" d="M 401.5 315 L 400.5 317 L 401.5 315 Z " /><path fill="rgb(139,161,172)" stroke="rgb(139,161,172)" stroke-width="1" opacity="1" d="M 403.5 317 L 402.5 319 L 403.5 317 Z " /><path fill="rgb(139,161,172)" stroke="rgb(139,161,172)" stroke-width="1" opacity="1" d="M 412.5 321 L 414.5 324 L 412.5 321 Z " /><path fill="rgb(139,161,172)" stroke="rgb(139,161,172)" stroke-width="1" opacity="1" d="M 354.5 323 L 355.5 325 L 354.5 323 Z " /><path fill="rgb(139,161,172)" stroke="rgb(139,161,172)" stroke-width="1" opacity="1" d="M 416.5 324 L 427 330 Q 428.1 332.7 425.5 332 L 425.5 333 L 427 333.5 L 425.5 334 Q 422.8 332.8 425 331.5 Q 425.8 329.3 423.5 330 L 418.5 327 L 416.5 324 Z " /><path fill="rgb(139,161,172)" stroke="rgb(139,161,172)" stroke-width="1" opacity="1" d="M 411.5 326 L 412.5 328 Q 409.7 328.7 411.5 326 Z " /><path fill="rgb(139,161,172)" stroke="rgb(139,161,172)" stroke-width="1" opacity="1" d="M 432.5 333 L 436 334.5 L 433.5 336 L 433.5 334 L 432.5 333 Z " /><path fill="rgb(139,161,172)" stroke="rgb(139,161,172)" stroke-width="1" opacity="1" d="M 362.5 336 L 363.5 338 L 362.5 336 Z " /><path fill="rgb(139,161,172)" stroke="rgb(139,161,172)" stroke-width="1" opacity="1" d="M 443.5 337 L 448 338.5 L 446.5 339 L 443.5 338 L 443.5 337 Z " /><path fill="rgb(139,161,172)" stroke="rgb(139,161,172)" stroke-width="1" opacity="1" d="M 450.5 339 L 453 339.5 L 450.5 340 L 450.5 339 Z " /><path fill="rgb(139,161,172)" stroke="rgb(139,161,172)" stroke-width="1" opacity="1" d="M 455.5 340 L 458 340.5 L 454.5 342 L 455.5 340 Z " /><path fill="rgb(139,161,172)" stroke="rgb(139,161,172)" stroke-width="1" opacity="1" d="M 461.5 341 L 464 341.5 L 461.5 342 L 461.5 341 Z " /><path fill="rgb(139,161,172)" stroke="rgb(139,161,172)" stroke-width="1" opacity="1" d="M 467.5 342 Q 472.9 340.1 472 343.5 L 470.5 343 Q 466.5 343.8 467.5 342 Z " /><path fill="rgb(139,161,172)" stroke="rgb(139,161,172)" stroke-width="1" opacity="1" d="M 365.5 343 L 368 343.5 Q 365.9 346.8 365.5 343 Z " /><path fill="rgb(139,161,172)" stroke="rgb(139,161,172)" stroke-width="1" opacity="1" d="M 476.5 343 L 481 343.5 L 476.5 344 L 476.5 343 Z " /><path fill="rgb(139,161,172)" stroke="rgb(139,161,172)" stroke-width="1" opacity="1" d="M 488.5 344 L 540 344.5 L 536.5 346 L 535.5 345 L 488.5 345 L 488.5 344 Z " /><path fill="rgb(139,161,172)" stroke="rgb(139,161,172)" stroke-width="1" opacity="1" d="M 369.5 348 L 371 350.5 L 370 350.5 L 369.5 348 Z " /><path fill="rgb(139,161,172)" stroke="rgb(139,161,172)" stroke-width="1" opacity="1" d="M 378.5 360 L 382.5 363 L 383 361.5 L 382.5 360 L 384 362.5 Q 381.7 366.2 379.5 361 L 378.5 360 Z " /><path fill="rgb(139,161,172)" stroke="rgb(139,161,172)" stroke-width="1" opacity="1" d="M 386.5 369 L 391 372.5 L 389.5 373 L 386.5 369 Z " /><path fill="rgb(139,161,172)" stroke="rgb(139,161,172)" stroke-width="1" opacity="1" d="M 390.5 369 L 391.5 371 L 390.5 369 Z " /><path fill="rgb(139,161,172)" stroke="rgb(139,161,172)" stroke-width="1" opacity="1" d="M 400.5 377 L 403 377.5 L 399.5 379 L 400.5 377 Z " /><path fill="rgb(139,161,172)" stroke="rgb(139,161,172)" stroke-width="1" opacity="1" d="M 416.5 384 L 415.5 386 L 416.5 384 Z " /><path fill="rgb(139,161,172)" stroke="rgb(139,161,172)" stroke-width="1" opacity="1" d="M 421.5 385 L 424 385.5 L 421.5 386 L 421.5 385 Z " /><path fill="rgb(139,161,172)" stroke="rgb(139,161,172)" stroke-width="1" opacity="1" d="M 418.5 386 L 422 387.5 L 420.5 388 L 418.5 386 Z " /><path fill="rgb(139,161,172)" stroke="rgb(139,161,172)" stroke-width="1" opacity="1" d="M 443.5 396 L 446 396.5 L 443.5 397 L 443.5 396 Z " /><path fill="rgb(139,161,172)" stroke="rgb(139,161,172)" stroke-width="1" opacity="1" d="M 4.5 562 L 7 562.5 L 4.5 563 L 4.5 562 Z " /><path fill="rgb(139,161,172)" stroke="rgb(139,161,172)" stroke-width="1" opacity="1" d="M 31.5 572 L 34 573.5 L 32.5 574 L 31.5 572 Z " /><path fill="rgb(139,161,172)" stroke="rgb(139,161,172)" stroke-width="1" opacity="1" d="M 65.5 588 L 67 588.5 L 64.5 590 L 65.5 588 Z " /><path fill="rgb(139,161,172)" stroke="rgb(139,161,172)" stroke-width="1" opacity="1" d="M 69.5 589 L 69.5 591 L 72.5 590 L 71.5 592 L 66 590.5 L 69.5 589 Z " /><path fill="rgb(139,161,172)" stroke="rgb(139,161,172)" stroke-width="1" opacity="1" d="M 82.5 595 L 85 596.5 L 83.5 597 L 82.5 595 Z " /><path fill="rgb(139,161,172)" stroke="rgb(139,161,172)" stroke-width="1" opacity="1" d="M 107.5 604 L 110 605.5 L 108.5 606 L 107.5 604 Z " /><path fill="rgb(139,161,172)" stroke="rgb(139,161,172)" stroke-width="1" opacity="1" d="M 146.5 615 L 149 615.5 L 146.5 616 L 146.5 615 Z " /><path fill="rgb(139,161,172)" stroke="rgb(139,161,172)" stroke-width="1" opacity="1" d="M 4.5 617 L 8 618.5 L 6.5 619 L 4.5 617 Z " /><path fill="rgb(139,161,172)" stroke="rgb(139,161,172)" stroke-width="1" opacity="1" d="M 16.5 617 L 18 617.5 L 15.5 619 L 16.5 617 Z " /><path fill="rgb(139,161,172)" stroke="rgb(139,161,172)" stroke-width="1" opacity="1" d="M 10.5 618 L 9.5 620 L 10.5 618 Z " /><path fill="rgb(139,161,172)" stroke="rgb(139,161,172)" stroke-width="1" opacity="1" d="M 162.5 620 L 165 620.5 L 162.5 621 L 162.5 620 Z " /><path fill="rgb(139,161,172)" stroke="rgb(139,161,172)" stroke-width="1" opacity="1" d="M 14.5 621 L 23 624.5 L 21.5 625 L 14.5 622 L 14.5 621 Z " /><path fill="rgb(139,161,172)" stroke="rgb(139,161,172)" stroke-width="1" opacity="1" d="M 166.5 622 L 169 623.5 L 167.5 623 L 166.5 622 Z " /><path fill="rgb(139,161,172)" stroke="rgb(139,161,172)" stroke-width="1" opacity="1" d="M 177.5 622 L 180 622.5 L 177.5 623 L 177.5 622 Z " /><path fill="rgb(139,161,172)" stroke="rgb(139,161,172)" stroke-width="1" opacity="1" d="M 24.5 625 L 28 626.5 L 26.5 627 L 24.5 625 Z " /><path fill="rgb(139,161,172)" stroke="rgb(139,161,172)" stroke-width="1" opacity="1" d="M 29.5 627 L 33 628.5 L 31.5 629 L 29.5 627 Z " /><path fill="rgb(139,161,172)" stroke="rgb(139,161,172)" stroke-width="1" opacity="1" d="M 34.5 627 L 38 628.5 L 34.5 630 L 34.5 627 Z " /><path fill="rgb(139,161,172)" stroke="rgb(139,161,172)" stroke-width="1" opacity="1" d="M 200.5 628 L 199.5 630 L 198 629.5 L 200.5 628 Z " /><path fill="rgb(139,161,172)" stroke="rgb(139,161,172)" stroke-width="1" opacity="1" d="M 49.5 634 L 52 634.5 Q 49.9 637.8 49.5 634 Z " /><path fill="rgb(139,161,172)" stroke="rgb(139,161,172)" stroke-width="1" opacity="1" d="M 53.5 635 L 54.5 637 L 57 635.5 Q 54.8 636.8 57.5 638 L 59 638.5 L 57.5 639 L 52 636.5 L 53.5 635 Z " /><path fill="rgb(139,161,172)" stroke="rgb(139,161,172)" stroke-width="1" opacity="1" d="M 223.5 637 L 224.5 639 L 223.5 637 Z " /><path fill="rgb(139,161,172)" stroke="rgb(139,161,172)" stroke-width="1" opacity="1" d="M 234.5 639 L 237 640.5 L 235.5 641 L 234.5 639 Z " /><path fill="rgb(139,161,172)" stroke="rgb(139,161,172)" stroke-width="1" opacity="1" d="M 67.5 640 L 71 641.5 L 68.5 643 L 68.5 641 L 65.5 642 L 65.5 641 L 67.5 640 Z " /><path fill="rgb(139,161,172)" stroke="rgb(139,161,172)" stroke-width="1" opacity="1" d="M 72.5 642 L 75 643.5 Q 75.8 645.8 73.5 645 L 73.5 643 L 70.5 644 L 70.5 643 L 72.5 642 Z " /><path fill="rgb(139,161,172)" stroke="rgb(139,161,172)" stroke-width="1" opacity="1" d="M 238.5 642 L 241 643.5 L 239.5 643 L 238.5 642 Z " /><path fill="rgb(139,161,172)" stroke="rgb(139,161,172)" stroke-width="1" opacity="1" d="M 79.5 643 L 77.5 646 L 76 645.5 L 79.5 643 Z " /><path fill="rgb(139,161,172)" stroke="rgb(139,161,172)" stroke-width="1" opacity="1" d="M 240.5 645 L 243 646.5 L 239.5 648 L 239.5 647 L 241 646.5 L 240.5 645 Z " /><path fill="rgb(139,161,172)" stroke="rgb(139,161,172)" stroke-width="1" opacity="1" d="M 79.5 646 L 84 647.5 L 82.5 648 L 79.5 647 L 79.5 646 Z " /><path fill="rgb(139,161,172)" stroke="rgb(139,161,172)" stroke-width="1" opacity="1" d="M 249.5 647 L 252 648.5 L 250.5 648 L 249.5 647 Z " /><path fill="rgb(139,161,172)" stroke="rgb(139,161,172)" stroke-width="1" opacity="1" d="M 88.5 649 L 92 650.5 L 90.5 651 L 88.5 649 Z " /><path fill="rgb(139,161,172)" stroke="rgb(139,161,172)" stroke-width="1" opacity="1" d="M 104.5 650 L 103.5 652 L 104.5 650 Z " /><path fill="rgb(139,161,172)" stroke="rgb(139,161,172)" stroke-width="1" opacity="1" d="M 257.5 651 L 256.5 653 L 257.5 651 Z " /><path fill="rgb(139,161,172)" stroke="rgb(139,161,172)" stroke-width="1" opacity="1" d="M 101.5 652 L 100.5 654 L 101.5 652 Z " /><path fill="rgb(139,161,172)" stroke="rgb(139,161,172)" stroke-width="1" opacity="1" d="M 103.5 653 L 108 655.5 L 106.5 656 L 103 655 L 103.5 653 Z " /><path fill="rgb(139,161,172)" stroke="rgb(139,161,172)" stroke-width="1" opacity="1" d="M 260.5 653 L 261.5 655 L 260.5 653 Z " /><path fill="rgb(139,161,172)" stroke="rgb(139,161,172)" stroke-width="1" opacity="1" d="M 257.5 654 L 259 654.5 L 256.5 656 L 257.5 654 Z " /><path fill="rgb(139,161,172)" stroke="rgb(139,161,172)" stroke-width="1" opacity="1" d="M 109.5 656 L 115 657.5 L 113.5 658 L 109.5 657 L 109.5 656 Z " /><path fill="rgb(139,161,172)" stroke="rgb(139,161,172)" stroke-width="1" opacity="1" d="M 265.5 658 L 268 659.5 L 266.5 659 L 264.5 660 L 265.5 658 Z " /><path fill="rgb(139,161,172)" stroke="rgb(139,161,172)" stroke-width="1" opacity="1" d="M 120.5 659 Q 124.3 658.3 125 660.5 L 123.5 661 L 120.5 660 L 120.5 659 Z " /><path fill="rgb(139,161,172)" stroke="rgb(139,161,172)" stroke-width="1" opacity="1" d="M 128.5 659 L 128.5 662 L 126 661.5 L 128.5 659 Z " /><path fill="rgb(139,161,172)" stroke="rgb(139,161,172)" stroke-width="1" opacity="1" d="M 144.5 666 L 147 666.5 L 144.5 667 L 144.5 666 Z " /><path fill="rgb(139,161,172)" stroke="rgb(139,161,172)" stroke-width="1" opacity="1" d="M 160.5 666 L 163 666.5 L 160.5 667 L 160.5 666 Z " /><path fill="rgb(139,161,172)" stroke="rgb(139,161,172)" stroke-width="1" opacity="1" d="M 152.5 667 L 155 668.5 L 152 669 L 152.5 667 Z " /><path fill="rgb(139,161,172)" stroke="rgb(139,161,172)" stroke-width="1" opacity="1" d="M 272.5 667 L 275.5 671 L 272.5 667 Z " /><path fill="rgb(139,161,172)" stroke="rgb(139,161,172)" stroke-width="1" opacity="1" d="M 160.5 670 L 165 671.5 L 163.5 672 L 160.5 671 L 160.5 670 Z " /><path fill="rgb(139,161,172)" stroke="rgb(139,161,172)" stroke-width="1" opacity="1" d="M 272.5 670 L 273.5 672 L 272.5 670 Z " /><path fill="rgb(139,161,172)" stroke="rgb(139,161,172)" stroke-width="1" opacity="1" d="M 176.5 675 Q 180.3 674.3 181 676.5 L 179.5 677 L 176.5 676 L 176.5 675 Z " /><path fill="rgb(139,161,172)" stroke="rgb(139,161,172)" stroke-width="1" opacity="1" d="M 184.5 675 L 188 676.5 L 186.5 677 L 184.5 675 Z " /><path fill="rgb(139,161,172)" stroke="rgb(139,161,172)" stroke-width="1" opacity="1" d="M 182.5 677 L 187 678.5 L 185.5 679 L 182.5 678 L 182.5 677 Z " /><path fill="rgb(139,161,172)" stroke="rgb(139,161,172)" stroke-width="1" opacity="1" d="M 281.5 677 L 282 678.5 L 280 679.5 L 281.5 677 Z " /><path fill="rgb(139,161,172)" stroke="rgb(139,161,172)" stroke-width="1" opacity="1" d="M 197.5 681 L 196.5 683 L 197.5 681 Z " /><path fill="rgb(139,161,172)" stroke="rgb(139,161,172)" stroke-width="1" opacity="1" d="M 204.5 683 L 207 684.5 L 205.5 684 L 204.5 683 Z " /><path fill="rgb(139,161,172)" stroke="rgb(139,161,172)" stroke-width="1" opacity="1" d="M 286.5 683 L 287.5 685 L 286.5 683 Z " /><path fill="rgb(139,161,172)" stroke="rgb(139,161,172)" stroke-width="1" opacity="1" d="M 200.5 684 L 204 685.5 L 202.5 686 L 200.5 684 Z " /><path fill="rgb(139,161,172)" stroke="rgb(139,161,172)" stroke-width="1" opacity="1" d="M 215.5 691 L 221 694.5 L 219.5 694 Q 215.5 693.5 215.5 691 Z " /><path fill="rgb(139,161,172)" stroke="rgb(139,161,172)" stroke-width="1" opacity="1" d="M 221.5 692 L 224 693.5 L 222.5 693 L 221.5 692 Z " /><path fill="rgb(139,161,172)" stroke="rgb(139,161,172)" stroke-width="1" opacity="1" d="M 289.5 693 L 291 697.5 L 290 697.5 L 289.5 693 Z " /><path fill="rgb(139,161,172)" stroke="rgb(139,161,172)" stroke-width="1" opacity="1" d="M 222.5 695 Q 224 698.5 225.5 696 L 227 696.5 L 225 697.5 L 228.5 700 L 229 698.5 L 228.5 697 L 231.5 701 L 229.5 700 L 230.5 702 L 232 702.5 L 230.5 703 L 222.5 695 Z " /><path fill="rgb(139,161,172)" stroke="rgb(139,161,172)" stroke-width="1" opacity="1" d="M 233.5 704 L 236.5 706 Q 238.3 702.3 240 705.5 Q 238.3 703.9 236.5 707 L 233.5 704 Z " /><path fill="rgb(139,161,172)" stroke="rgb(139,161,172)" stroke-width="1" opacity="1" d="M 239.5 711 L 244 713.5 L 242.5 715 L 239.5 711 Z " /><path fill="rgb(139,161,172)" stroke="rgb(139,161,172)" stroke-width="1" opacity="1" d="M 243.5 716 L 248 723.5 L 247 723.5 L 243.5 716 Z " /><path fill="rgb(139,161,172)" stroke="rgb(139,161,172)" stroke-width="1" opacity="1" d="M 248.5 725 L 250 727.5 L 249 727.5 L 248.5 725 Z " /><path fill="rgb(139,161,172)" stroke="rgb(139,161,172)" stroke-width="1" opacity="1" d="M 254.5 726 L 255 728.5 L 254 728.5 L 254.5 726 Z " /><path fill="rgb(139,161,172)" stroke="rgb(139,161,172)" stroke-width="1" opacity="1" d="M 297.5 726 L 298 729.5 L 297 729.5 L 297.5 726 Z " /><path fill="rgb(139,161,172)" stroke="rgb(139,161,172)" stroke-width="1" opacity="1" d="M 253.5 735 L 253 736.5 L 252.5 738 L 252 736.5 L 253.5 735 Z " /><path fill="rgb(139,161,172)" stroke="rgb(139,161,172)" stroke-width="1" opacity="1" d="M 253.5 740 L 256 744.5 L 254 745.5 L 253.5 740 Z " /><path fill="rgb(139,161,172)" stroke="rgb(139,161,172)" stroke-width="1" opacity="1" d="M 297.5 747 L 296.5 749 L 297.5 747 Z " /><path fill="rgb(139,161,172)" stroke="rgb(139,161,172)" stroke-width="1" opacity="1" d="M 255.5 748 L 256 750.5 L 255 750.5 L 255.5 748 Z " /><path fill="rgb(139,161,172)" stroke="rgb(139,161,172)" stroke-width="1" opacity="1" d="M 256.5 754 L 257 757.5 L 256 757.5 L 256.5 754 Z " /><path fill="rgb(139,161,172)" stroke="rgb(139,161,172)" stroke-width="1" opacity="1" d="M 261.5 757 L 262 759.5 L 261 759.5 L 261.5 757 Z " /><path fill="rgb(139,161,172)" stroke="rgb(139,161,172)" stroke-width="1" opacity="1" d="M 299.5 757 L 300 759.5 L 299 759.5 L 299.5 757 Z " /><path fill="rgb(139,161,172)" stroke="rgb(139,161,172)" stroke-width="1" opacity="1" d="M 296.5 760 L 297 765.5 L 296 765.5 L 296.5 760 Z " /><path fill="rgb(139,161,172)" stroke="rgb(139,161,172)" stroke-width="1" opacity="1" d="M 257.5 761 L 258 765.5 L 257 765.5 L 257.5 761 Z " /><path fill="rgb(139,161,172)" stroke="rgb(139,161,172)" stroke-width="1" opacity="1" d="M 299.5 765 L 300 767.5 L 299 767.5 L 299.5 765 Z " /><path fill="rgb(139,161,172)" stroke="rgb(139,161,172)" stroke-width="1" opacity="1" d="M 258.5 770 L 259 777.5 L 258 777.5 L 258.5 770 Z " /><path fill="rgb(139,161,172)" stroke="rgb(139,161,172)" stroke-width="1" opacity="1" d="M 259.5 784 L 260 793.5 L 259 793.5 L 259.5 784 Z " /><path fill="rgb(139,161,172)" stroke="rgb(139,161,172)" stroke-width="1" opacity="1" d="M 260.5 800 L 261 807.5 L 260 807.5 L 260.5 800 Z " /><path fill="rgb(139,161,172)" stroke="rgb(139,161,172)" stroke-width="1" opacity="1" d="M 261.5 814 L 262 819.5 L 261 819.5 L 261.5 814 Z " /><path fill="rgb(139,161,172)" stroke="rgb(139,161,172)" stroke-width="1" opacity="1" d="M 304.5 818 L 305 820.5 L 304 820.5 L 304.5 818 Z " /><path fill="rgb(139,161,172)" stroke="rgb(139,161,172)" stroke-width="1" opacity="1" d="M 262.5 824 L 263 827.5 L 262 827.5 L 262.5 824 Z " /><path fill="rgb(139,161,172)" stroke="rgb(139,161,172)" stroke-width="1" opacity="1" d="M 263.5 831 L 264 834.5 L 263 834.5 L 263.5 831 Z " /><path fill="rgb(139,161,172)" stroke="rgb(139,161,172)" stroke-width="1" opacity="1" d="M 264.5 837 L 266 840 Q 269 838.8 268 842.5 L 267 842.5 L 265.5 840 Q 262.4 840.7 264.5 837 Z " /><path fill="rgb(139,161,172)" stroke="rgb(139,161,172)" stroke-width="1" opacity="1" d="M 265.5 842 L 267 847.5 L 266 847.5 L 265.5 842 Z " /><path fill="rgb(139,161,172)" stroke="rgb(139,161,172)" stroke-width="1" opacity="1" d="M 312.5 847 L 313 850.5 L 312 850.5 L 312.5 847 Z " /><path fill="rgb(139,161,172)" stroke="rgb(139,161,172)" stroke-width="1" opacity="1" d="M 315.5 848 L 316 850.5 L 315 850.5 L 315.5 848 Z " /><path fill="rgb(139,161,172)" stroke="rgb(139,161,172)" stroke-width="1" opacity="1" d="M 268.5 853 L 269 855.5 L 268 855.5 L 268.5 853 Z " /><path fill="rgb(139,161,172)" stroke="rgb(139,161,172)" stroke-width="1" opacity="1" d="M 270.5 860 L 272 863.5 L 271 863.5 L 270.5 860 Z " /><path fill="rgb(139,161,172)" stroke="rgb(139,161,172)" stroke-width="1" opacity="1" d="M 272.5 865 L 275 871 L 277 871.5 Q 275.5 874.5 274 871.5 L 272.5 865 Z " /><path fill="rgb(139,161,172)" stroke="rgb(139,161,172)" stroke-width="1" opacity="1" d="M 276.5 875 L 284 888.5 L 283 888.5 L 276.5 875 Z " /><path fill="rgb(139,161,172)" stroke="rgb(139,161,172)" stroke-width="1" opacity="1" d="M 338.5 890 L 342 894.5 L 339 892.5 L 338.5 890 Z " /><path fill="rgb(139,161,172)" stroke="rgb(139,161,172)" stroke-width="1" opacity="1" d="M 285.5 891 L 288 894.5 L 286 893.5 L 285.5 891 Z " /><path fill="rgb(139,161,172)" stroke="rgb(139,161,172)" stroke-width="1" opacity="1" d="M 288.5 896 L 290.5 899 L 288.5 896 Z " /><path fill="rgb(139,161,172)" stroke="rgb(139,161,172)" stroke-width="1" opacity="1" d="M 293.5 898 L 296 902.5 L 295 902.5 L 293.5 898 Z " /><path fill="rgb(139,161,172)" stroke="rgb(139,161,172)" stroke-width="1" opacity="1" d="M 344.5 898 L 346 900.5 L 344 899.5 L 344.5 898 Z " /><path fill="rgb(139,161,172)" stroke="rgb(139,161,172)" stroke-width="1" opacity="1" d="M 291.5 900 L 296 905.5 L 294 906 L 291.5 900 Z " /><path fill="rgb(139,161,172)" stroke="rgb(139,161,172)" stroke-width="1" opacity="1" d="M 296.5 907 Q 298.8 906.3 298 908.5 L 302 913.5 L 299 911.5 L 296.5 907 Z " /><path fill="rgb(139,161,172)" stroke="rgb(139,161,172)" stroke-width="1" opacity="1" d="M 353.5 910 L 354.5 912 L 353.5 910 Z " /><path fill="rgb(139,161,172)" stroke="rgb(139,161,172)" stroke-width="1" opacity="1" d="M 302.5 915 L 306 917 L 308 920.5 L 302.5 915 Z " /><path fill="rgb(139,161,172)" stroke="rgb(139,161,172)" stroke-width="1" opacity="1" d="M 360.5 918 L 359.5 920 L 360.5 918 Z " /><path fill="rgb(139,161,172)" stroke="rgb(139,161,172)" stroke-width="1" opacity="1" d="M 308.5 922 L 315 930 Q 317.7 928.9 317 931.5 L 323 936.5 L 328 942.5 L 313 928.5 L 308.5 922 Z " /><path fill="rgb(139,161,172)" stroke="rgb(139,161,172)" stroke-width="1" opacity="1" d="M 364.5 922 L 367 925.5 L 364 923.5 L 364.5 922 Z " /><path fill="rgb(139,161,172)" stroke="rgb(139,161,172)" stroke-width="1" opacity="1" d="M 368.5 927 Q 371.5 928.5 368.5 930 L 368.5 927 Z " /><path fill="rgb(139,161,172)" stroke="rgb(139,161,172)" stroke-width="1" opacity="1" d="M 369.5 931 L 368.5 933 L 369.5 931 Z " /><path fill="rgb(139,161,172)" stroke="rgb(139,161,172)" stroke-width="1" opacity="1" d="M 372.5 934 L 371.5 936 L 372.5 934 Z " /><path fill="rgb(139,161,172)" stroke="rgb(139,161,172)" stroke-width="1" opacity="1" d="M 377.5 940 L 379 942.5 L 377 943.5 L 378 941.5 L 377.5 940 Z " /><path fill="rgb(139,161,172)" stroke="rgb(139,161,172)" stroke-width="1" opacity="1" d="M 380.5 940 L 383.5 944 L 380.5 940 Z " /><path fill="rgb(139,161,172)" stroke="rgb(139,161,172)" stroke-width="1" opacity="1" d="M 329.5 944 L 332 945.5 L 332.5 944 Q 334.3 947.1 336 945.5 Q 334.7 948.3 333.5 946 L 331.5 947 L 329.5 944 Z " /><path fill="rgb(139,161,172)" stroke="rgb(139,161,172)" stroke-width="1" opacity="1" d="M 333.5 948 L 336 948.5 Q 333.9 951.8 333.5 948 Z " /><path fill="rgb(139,161,172)" stroke="rgb(139,161,172)" stroke-width="1" opacity="1" d="M 385.5 948 L 388.5 952 L 385.5 948 Z " /><path fill="rgb(139,161,172)" stroke="rgb(139,161,172)" stroke-width="1" opacity="1" d="M 337.5 952 L 343.5 959 L 337 954 L 337.5 952 Z " /><path fill="rgb(139,161,172)" stroke="rgb(139,161,172)" stroke-width="1" opacity="1" d="M 393.5 956 Q 398 958 394.5 960 L 393 959.5 L 395 958.5 L 393.5 956 Z " /><path fill="rgb(76,90,96)" stroke="rgb(76,90,96)" stroke-width="1" opacity="1" d="M 253.5 0 L 310.5 0 L 312 1.5 L 333 39.5 L 355.5 71 L 357 70.5 L 356 71.5 L 364 79.5 L 368.5 85 L 379 93 L 379 95 L 381 95 Q 379.9 97.7 382.5 97 L 400 115.5 L 400 117 Q 402.7 115.9 402 118.5 L 408 129 Q 410.7 127.9 410 130.5 Q 415.8 138.9 418 150 L 420 150.5 L 420 152.5 L 428 174 L 430 174.5 L 430 176.5 L 434 183.5 L 434 185.5 L 445 204.5 L 454.5 214 L 470.5 223 L 485.5 227 L 499.5 228 L 500.5 229 L 540 229 L 540 287 L 493.5 287 L 492.5 286 L 483.5 286 L 482.5 285 L 470.5 284 L 450.5 278 Q 432.1 270.4 421 255.5 L 414 245.5 L 403 224.5 L 391 192.5 L 376 160.5 Q 365 143 350.5 129 L 345.5 125 L 312 92.5 Q 294.4 71.6 280 47.5 L 253.5 0 Z " /><path fill="rgb(76,90,96)" stroke="rgb(76,90,96)" stroke-width="1" opacity="1" d="M 370.5 6 L 371.5 8 L 370.5 6 Z " /><path fill="rgb(76,90,96)" stroke="rgb(76,90,96)" stroke-width="1" opacity="1" d="M 395.5 104 L 396.5 106 L 395.5 104 Z " /><path fill="rgb(76,90,96)" stroke="rgb(76,90,96)" stroke-width="1" opacity="1" d="M 439.5 189 L 438.5 191 L 439.5 189 Z " /><path fill="rgb(76,90,96)" stroke="rgb(76,90,96)" stroke-width="1" opacity="1" d="M 0.5 673 L 71.5 701 L 157.5 726 L 184.5 739 L 200 752.5 Q 208.8 763.2 212 779.5 L 214 796.5 L 215 797.5 L 216 823.5 L 217 824.5 L 217 836.5 L 218 837.5 L 219 854.5 L 222 868.5 L 228 885.5 L 245 914.5 Q 263.8 938.7 286 959.5 L 229.5 960 L 222 954 L 210 939 L 206 936.5 L 202 930 Q 199.3 931.1 200 928.5 Q 185.4 912.1 178 888.5 L 174 868.5 L 173 840.5 L 172 839.5 L 171 822.5 L 168 810.5 L 166 808.5 L 166 806.5 L 160 794 Q 157.3 795.1 158 792.5 L 143.5 781 L 128.5 774 L 125.5 774 L 123.5 772 L 62.5 755 L 45.5 748 L 36.5 746 L 34.5 744 L 0 731 L 0.5 673 Z " /><path fill="rgb(142,164,175)" stroke="rgb(142,164,175)" stroke-width="1" opacity="1" d="M 139.5 0 L 141.5 0 L 192.5 0 L 193.5 1 L 195 0.5 L 197 3.5 Q 201 6.8 201 13 Q 203.7 11.9 203 14.5 L 222 46.5 L 222 48.5 L 228 56.5 L 227 58.5 L 229 58.5 L 236 69.5 L 236 72 Q 239 70.8 238 74.5 L 247 85.5 L 248 90 Q 250.7 88.9 250 91.5 L 265 111 L 268 112.5 L 278 125 L 292 136 L 292 138 L 294 138 Q 292.9 140.7 295.5 140 L 305 148.5 Q 304.3 150.8 306.5 150 L 310.5 155 L 318 161.5 L 319.5 164 Q 321.8 163.3 321 165.5 L 326 172 Q 328.7 170.9 328 173.5 L 331 176.5 L 330 177.5 L 330.5 179 L 331.5 178 L 335 181.5 L 337 184.5 L 336 186.5 L 339 187.5 L 356 220.5 L 360 230.5 L 360.5 236 L 362 235.5 L 367 247.5 Q 364.5 249 368 250.5 L 386 293 L 389 294.5 Q 394.6 306.4 403.5 315 L 406 316.5 Q 405.3 318.8 407.5 318 Q 414.7 326.3 425 330 Q 423.9 332.7 426.5 332 L 428.5 332 Q 430.8 331.3 430 333.5 L 432.5 334 L 434 334.5 L 433.5 336 L 436.5 335 Q 444.1 339.4 455 340.5 L 454.5 342 L 460.5 341 L 471.5 344 L 475.5 343 L 476.5 344 L 487.5 344 L 488.5 345 L 535.5 345 L 536.5 346 L 540 345 L 540 400.5 L 536.5 401 L 535.5 402 L 496.5 402 L 495.5 401 L 460.5 400 L 455.5 398 L 452.5 399 L 446 398 Q 447.3 395 443.5 396 L 441.5 397 Q 440 393.5 438.5 396 L 429 393.5 L 429.5 392 L 426.5 393 L 420 391 L 419.5 389 L 417.5 390 L 412 388 L 411.5 386 L 409.5 386 L 395 377.5 L 394.5 376 L 393.5 377 L 390.5 374 L 375 359.5 Q 360 340.5 350 316.5 L 350.5 315 Q 348.3 315.8 349 313.5 L 347 309.5 L 347.5 308 L 346 307.5 L 346.5 306 L 345 305.5 L 345.5 304 Q 342.9 304.8 344 301.5 L 337 285.5 L 338 283.5 L 336 283.5 L 333 276.5 L 334 274 Q 331.3 275.1 332 272.5 L 330 268.5 L 331 266.5 L 329 266.5 L 330 264.5 L 328 264 L 324 254.5 L 325 252 L 323 251.5 L 323.5 250 Q 321.3 250.8 322 248.5 L 318 240.5 L 319 238.5 L 317 238.5 L 315 234.5 L 315.5 233 L 313 231.5 L 303 214.5 L 303.5 213 L 300 210.5 L 300.5 209 L 297 206.5 L 279 185.5 L 279.5 184 L 277.5 184 L 262.5 169 L 261 169 L 260.5 165 L 259.5 167 L 224 132.5 L 223.5 129 L 222.5 130 L 216 123.5 L 217 121.5 Q 214.5 123.3 212 118.5 L 209 114.5 L 209 112 L 205 109.5 L 184 78.5 L 186 77.5 L 182 75.5 L 183 73.5 L 181 73.5 L 179 70.5 L 179.5 69 L 177 67.5 L 176 65.5 L 176.5 64 L 174 62.5 L 174.5 61 L 172 59.5 L 166 48.5 L 166.5 47 L 164 45.5 L 164 43.5 L 162.5 41 Q 160.3 41.8 161 39.5 L 160.5 38 L 162 37.5 L 158 35.5 L 155 30.5 L 155.5 29 Q 153.3 29.8 154 27.5 L 149 19.5 L 149.5 18 Q 147.3 18.8 148 16.5 L 146 13.5 L 146.5 12 L 145 11.5 L 146 9.5 L 143 8.5 L 139 1.5 L 139.5 0 Z M 191 80 L 190 82 L 192 83 L 191 80 Z M 274 121 L 272 124 L 275 122 L 274 121 Z M 281 129 L 281 131 L 283 130 L 281 129 Z M 246 148 L 246 150 L 248 149 L 246 148 Z M 356 224 L 355 227 L 356 227 L 356 224 Z M 369 256 L 368 259 L 369 259 L 369 256 Z M 370 265 L 370 270 L 371 270 L 370 265 Z M 395 307 L 396 309 Q 397 306 395 307 Z M 412 326 Q 410 329 413 328 L 412 326 Z M 401 377 L 401 378 L 403 378 L 401 377 Z M 422 385 L 422 386 L 424 386 L 422 385 Z " /><path fill="rgb(142,164,175)" stroke="rgb(142,164,175)" stroke-width="1" opacity="1" d="M 0 559 Q 2.7 557.9 2 560.5 L 4.5 561 L 10 562.5 L 9.5 564 L 11.5 563 L 12.5 565 L 14.5 565 L 17 565.5 L 16.5 567 L 18.5 566 L 29 570.5 L 28.5 572 L 31.5 571 L 42 575 L 42.5 577 L 44.5 577 L 49 578 L 49.5 580 L 52 579 L 52.5 581 L 55 580 L 55.5 582 L 57.5 581 L 60 582.5 L 59.5 584 L 61.5 583 L 68 585 L 68.5 588 L 69.5 586 L 73 587 L 73.5 589 L 75.5 588 L 75.5 590 L 78.5 589 L 98 596 Q 96.9 598.7 99.5 598 L 101.5 598 L 123 604.5 L 122.5 606 L 125.5 605 L 144 610 L 144.5 612 L 146.5 611 L 152.5 614 L 154.5 613 L 175.5 619 L 177.5 621 L 179.5 620 L 187 622 L 187.5 624 L 189.5 623 L 204 627 L 204.5 629 L 207 628 L 207.5 630 L 209.5 629 L 216 631 L 216.5 633 L 218 632.5 L 218.5 634 L 220.5 633 L 224 634 L 224.5 636 L 226 635.5 Q 225.3 637.8 227.5 637 L 229.5 637 L 234 638 L 234.5 640 L 236 639.5 L 235.5 641 L 237.5 640 L 250 646.5 L 249.5 648 L 251.5 647 L 257 650 L 257.5 652 Q 258.8 649.8 260 652.5 L 261.5 655 L 263 654.5 Q 262.3 656.8 264.5 656 L 272 662.5 Q 271.3 664.8 273.5 664 L 280 670.5 L 279.5 672 L 284 675.5 L 285 677.5 L 284.5 679 L 287 680.5 L 293 694.5 L 292 697 Q 295 695.8 294 699.5 L 298 715.5 Q 295.5 717 299 718.5 L 300 727.5 L 300 729.5 L 301 745.5 L 302 746.5 L 303 773.5 L 302 776 L 304 776.5 L 304 788.5 L 305 789.5 L 305 798.5 L 306 799.5 L 307 811.5 L 306 814 Q 308.7 812.9 308 815.5 L 308 817.5 L 310 828.5 L 315 843.5 L 314.5 845 Q 317.1 844.2 316 847.5 L 324 863.5 L 323.5 865 L 325 865.5 L 324.5 867 L 326 867.5 L 325.5 869 Q 327.8 868.3 327 870.5 L 329 873.5 L 328.5 875 L 331 876.5 L 330.5 878 L 333 879.5 L 337 886.5 L 336 888.5 Q 338 886.8 340 890.5 L 339 892.5 L 342 893.5 L 341.5 895 L 345 897.5 L 344 899.5 Q 346 897.8 348 901.5 L 365 921.5 L 364 923.5 L 365.5 923 L 376 933.5 L 377.5 936 L 380 937.5 L 378 938.5 L 380.5 939 L 401 959.5 L 395.5 960 L 393.5 959 L 392.5 960 L 344 960 L 337.5 952 L 335 950.5 L 333.5 948 Q 331.3 948.8 332 946.5 L 328 944 L 320.5 934 L 317 931.5 L 315 928.5 Q 308.3 924.2 306 917 L 302 914.5 L 298 907 Q 295.3 908.1 296 905.5 L 284 889.5 L 276 872.5 L 276.5 871 Q 274.3 871.8 275 869.5 L 270 859.5 L 265 840.5 L 266 838.5 L 264 836.5 L 263 824.5 L 262 823.5 L 263 821.5 L 261 813.5 L 259 770.5 L 258 769.5 L 258 761.5 L 255 745.5 L 255 743.5 L 252 734.5 L 252.5 733 Q 249.5 733.9 251 729.5 L 246 718.5 L 238 708 L 236 707.5 L 236.5 706 L 232 704 Q 233.1 701.3 230.5 702 L 219.5 693 L 201.5 684 L 184.5 677 L 181.5 677 L 179.5 675 L 168.5 673 L 152.5 667 L 150.5 668 L 129.5 662 L 127.5 660 L 125.5 661 L 123.5 659 L 118.5 659 L 112.5 656 L 108.5 656 L 103.5 653 L 101.5 654 L 81.5 646 L 75 645 L 74.5 643 L 72.5 644 L 61.5 640 L 55.5 636 L 54 636.5 L 53.5 635 L 51.5 636 L 51.5 634 L 48.5 635 L 18.5 622 L 0 616 L 0 562.5 L 1 561.5 L 0 559 Z M 5 562 L 5 563 L 7 563 L 5 562 Z M 67 590 L 69 592 L 72 592 L 67 590 Z M 108 604 L 109 606 L 110 606 L 108 604 Z M 147 615 L 147 616 L 149 616 L 147 615 Z M 163 620 L 163 621 L 165 621 L 163 620 Z M 178 622 L 178 623 L 180 623 L 178 622 Z M 36 628 L 36 629 L 38 629 L 36 628 Z M 161 666 L 161 667 L 163 667 L 161 666 Z M 290 693 L 289 696 L 290 696 L 290 693 Z M 230 698 Q 228 701 231 700 L 230 698 Z M 255 726 L 254 729 L 255 729 L 255 726 Z M 298 726 L 297 730 L 298 730 L 298 726 Z M 262 757 L 261 760 L 262 760 L 262 757 Z M 300 757 L 299 760 L 300 760 L 300 757 Z M 297 760 L 296 766 L 297 766 L 297 760 Z M 300 765 L 299 768 L 300 768 L 300 765 Z M 305 818 L 304 821 L 305 821 L 305 818 Z M 267 840 L 267 843 L 268 843 Q 269 839 267 840 Z M 313 847 L 312 851 L 313 851 L 313 847 Z M 316 848 L 315 851 L 316 851 L 316 848 Z M 333 944 Q 331 947 334 946 L 333 944 Z " /><path fill="rgb(172,199,210)" stroke="rgb(172,199,210)" stroke-width="1" opacity="1" d="M 81.5 0 L 137.5 0 L 139 1.5 L 138 3.5 L 141 4.5 L 140.5 6 Q 143.1 5.2 142 8.5 L 149 19.5 L 148.5 21 Q 150.8 20.3 150 22.5 L 157 33.5 L 156.5 35 Q 159.1 34.2 158 37.5 L 163 43.5 L 166 51.5 L 169 54.5 L 169.5 58 L 171 57.5 L 174 64.5 L 186 81.5 L 185.5 83 Q 187.8 82.3 187 84.5 L 202 105.5 L 201.5 107 L 205 109.5 L 206 112.5 L 222 132 Q 224.7 130.9 224 133.5 L 240 149.5 L 239.5 151 Q 244.5 150.5 245 154.5 Q 244.3 156.8 246.5 156 L 249 157 Q 247.9 159.7 250.5 159 L 259 166 L 262.5 171 L 278 184.5 L 286 193.5 L 285.5 195 L 289 196.5 L 302 213.5 L 302 216 Q 304.7 214.9 304 217.5 L 314 232.5 L 313.5 234 Q 315.8 233.3 315 235.5 L 319 242.5 Q 316.5 244 320 245.5 L 324 254.5 L 323.5 256 Q 325.8 255.3 325 257.5 L 342 298.5 L 341.5 300 Q 344.1 299.2 343 302.5 L 357 330.5 L 358 336 Q 360.7 334.9 360 337.5 L 366 348.5 L 370 352.5 L 369.5 354 L 373 356.5 L 383 370 L 406.5 386 L 434.5 396 L 456.5 400 L 479.5 401 L 480.5 402 L 540 402 L 540 459 L 472.5 459 L 471.5 458 L 458.5 458 L 457.5 457 L 432.5 455 L 428.5 453 L 408.5 449 L 392 442 L 391.5 440 L 389.5 441 Q 368.2 430.8 354 413.5 L 352 410.5 L 343 399.5 L 336 387.5 L 336.5 386 Q 334.3 386.8 335 384.5 L 318 351.5 L 317 346.5 L 303 314.5 L 303 311.5 L 301 309.5 L 285 270.5 L 269 243.5 L 247 217.5 L 247.5 216 L 244 214.5 L 242 211.5 L 233 204 L 230.5 200 L 218 190 Q 219.1 187.3 216.5 188 L 181 153.5 L 179 150.5 L 167 137.5 L 167.5 136 Q 164.2 137.1 165 134.5 L 149 113.5 L 116 61.5 L 116.5 60 L 114 58.5 L 81.5 0 Z " /><path fill="rgb(172,199,210)" stroke="rgb(172,199,210)" stroke-width="1" opacity="1" d="M 0 502 L 15.5 507 L 42.5 519 L 48 520 L 48.5 522 L 50.5 522 L 106.5 543 L 128 549 L 128.5 551 L 130.5 550 L 136 552 L 136.5 554 L 139.5 553 L 152.5 558 L 210 573 Q 208.9 575.7 211.5 575 L 213.5 575 L 227 578 L 227.5 580 L 229.5 579 L 273.5 595 L 304 613 L 304.5 616 L 305.5 615 L 308.5 618 L 311.5 620 Q 316.3 622.5 314.5 625 L 320 629.5 L 321 633 L 324 634.5 Q 336 652.5 340 678.5 Q 337.5 680 341 681.5 L 341 687.5 L 343 694.5 L 343 703.5 L 344 704.5 L 344 714.5 L 345 715.5 L 347 759.5 L 348 760.5 L 350 787.5 L 355 812.5 L 363 834.5 L 362 836.5 L 364 836.5 L 365 841.5 L 379 867.5 Q 388.5 884 401 897.5 L 400.5 899 L 405 902.5 L 408 908 Q 410.7 906.9 410 909.5 L 458 959.5 L 455.5 960 L 402.5 960 L 399 956.5 Q 399.7 953.9 397 955 L 397 953 L 395.5 953 L 389 945 L 387.5 945 L 378 935.5 L 374 930.5 L 366 922.5 L 365.5 920 L 364 920.5 L 359 913.5 Q 361.2 912.3 358.5 911 L 357.5 913 L 355.5 909 L 352 906.5 L 346 898.5 L 346 896 L 342 893.5 L 338 887.5 L 338 885 Q 335.3 886.1 336 883.5 L 325 866.5 L 318 851.5 L 320 850.5 L 317 848.5 L 310 825.5 L 310 823.5 L 307 811.5 L 306 795.5 L 305 794.5 L 302 739.5 L 301 738.5 L 299 716.5 L 291 687.5 L 283 674.5 L 285 673.5 L 274 663.5 Q 274.8 661.3 272.5 662 L 264.5 654 L 263.5 655 L 260.5 652 L 251.5 646 L 225.5 634 L 220.5 633 L 216.5 630 L 214.5 630 L 192.5 624 L 189.5 622 L 181.5 621 L 174.5 618 L 152 612.5 Q 154.3 611.3 151.5 610 L 151 612 L 112 601 L 111.5 599 L 109.5 600 L 53.5 580 L 39.5 573 L 37.5 573 Q 33 573.5 32.5 570 L 30.5 570 L 0 558 L 0 502 Z M 335 872 Q 332 874 335 875 L 336 873 L 335 872 Z " /><path fill="rgb(167,193,204)" stroke="rgb(167,193,204)" stroke-width="1" opacity="1" d="M 139.5 2 L 138.5 4 L 139.5 2 Z " /><path fill="rgb(167,193,204)" stroke="rgb(167,193,204)" stroke-width="1" opacity="1" d="M 142.5 7 L 147 14.5 L 145 13.5 L 142 8.5 L 142.5 7 Z " /><path fill="rgb(167,193,204)" stroke="rgb(167,193,204)" stroke-width="1" opacity="1" d="M 145.5 19 L 146.5 21 L 145.5 19 Z " /><path fill="rgb(167,193,204)" stroke="rgb(167,193,204)" stroke-width="1" opacity="1" d="M 150.5 22 L 151.5 24 L 150.5 22 Z " /><path fill="rgb(167,193,204)" stroke="rgb(167,193,204)" stroke-width="1" opacity="1" d="M 158.5 36 L 161 39.5 L 158 39.5 L 159 37.5 L 158.5 36 Z " /><path fill="rgb(167,193,204)" stroke="rgb(167,193,204)" stroke-width="1" opacity="1" d="M 161.5 41 L 162.5 43 L 161.5 41 Z " /><path fill="rgb(167,193,204)" stroke="rgb(167,193,204)" stroke-width="1" opacity="1" d="M 163.5 44 L 162.5 46 L 163.5 44 Z " /><path fill="rgb(167,193,204)" stroke="rgb(167,193,204)" stroke-width="1" opacity="1" d="M 164.5 46 L 169 53.5 L 167 52.5 L 164.5 46 Z " /><path fill="rgb(167,193,204)" stroke="rgb(167,193,204)" stroke-width="1" opacity="1" d="M 169.5 55 Q 172.5 56.5 169.5 58 L 169.5 55 Z " /><path fill="rgb(167,193,204)" stroke="rgb(167,193,204)" stroke-width="1" opacity="1" d="M 171.5 58 L 170.5 60 L 171.5 58 Z " /><path fill="rgb(167,193,204)" stroke="rgb(167,193,204)" stroke-width="1" opacity="1" d="M 174.5 63 L 177 66.5 L 174 64.5 L 174.5 63 Z " /><path fill="rgb(167,193,204)" stroke="rgb(167,193,204)" stroke-width="1" opacity="1" d="M 177.5 68 L 182 74.5 L 180 73.5 L 177.5 68 Z " /><path fill="rgb(167,193,204)" stroke="rgb(167,193,204)" stroke-width="1" opacity="1" d="M 182.5 76 L 185 79.5 L 182 79.5 L 183 77.5 L 182.5 76 Z " /><path fill="rgb(167,193,204)" stroke="rgb(167,193,204)" stroke-width="1" opacity="1" d="M 187.5 84 L 188.5 86 L 187.5 84 Z " /><path fill="rgb(167,193,204)" stroke="rgb(167,193,204)" stroke-width="1" opacity="1" d="M 191.5 90 L 192.5 92 L 191.5 90 Z " /><path fill="rgb(167,193,204)" stroke="rgb(167,193,204)" stroke-width="1" opacity="1" d="M 193.5 93 L 194.5 95 L 193.5 93 Z " /><path fill="rgb(167,193,204)" stroke="rgb(167,193,204)" stroke-width="1" opacity="1" d="M 195.5 96 L 205 108.5 L 202 106.5 L 197.5 100 L 196 100.5 L 197 98.5 L 195.5 96 Z " /><path fill="rgb(167,193,204)" stroke="rgb(167,193,204)" stroke-width="1" opacity="1" d="M 205.5 110 L 212 117.5 L 206 112.5 L 205.5 110 Z " /><path fill="rgb(167,193,204)" stroke="rgb(167,193,204)" stroke-width="1" opacity="1" d="M 213.5 120 L 215.5 123 L 213.5 120 Z " /><path fill="rgb(167,193,204)" stroke="rgb(167,193,204)" stroke-width="1" opacity="1" d="M 217.5 125 L 223.5 132 Q 221.3 132.8 222 130.5 L 217.5 126 L 216 126.5 L 217.5 125 Z " /><path fill="rgb(167,193,204)" stroke="rgb(167,193,204)" stroke-width="1" opacity="1" d="M 224.5 133 L 247.5 157 L 240.5 150 L 239 150.5 L 240 149.5 L 224.5 133 Z " /><path fill="rgb(167,193,204)" stroke="rgb(167,193,204)" stroke-width="1" opacity="1" d="M 224.5 136 L 225.5 138 L 224.5 136 Z " /><path fill="rgb(167,193,204)" stroke="rgb(167,193,204)" stroke-width="1" opacity="1" d="M 249.5 157 L 258 165.5 L 256.5 167 L 257 165.5 L 250.5 159 L 248.5 160 L 249 158.5 L 249.5 157 Z " /><path fill="rgb(167,193,204)" stroke="rgb(167,193,204)" stroke-width="1" opacity="1" d="M 259.5 167 L 262.5 169 L 275.5 183 L 259.5 167 Z " /><path fill="rgb(167,193,204)" stroke="rgb(167,193,204)" stroke-width="1" opacity="1" d="M 278.5 184 L 287 194.5 L 286 194.5 L 278 185.5 L 278.5 184 Z " /><path fill="rgb(167,193,204)" stroke="rgb(167,193,204)" stroke-width="1" opacity="1" d="M 289.5 197 L 306 218.5 L 304 217.5 Q 304.7 214.9 302 216 L 302 213.5 L 289.5 198 L 287.5 199 L 287.5 198 L 289.5 197 Z " /><path fill="rgb(167,193,204)" stroke="rgb(167,193,204)" stroke-width="1" opacity="1" d="M 309.5 224 L 311 226.5 L 309 225.5 L 309.5 224 Z " /><path fill="rgb(167,193,204)" stroke="rgb(167,193,204)" stroke-width="1" opacity="1" d="M 316.5 237 L 318 239.5 L 316 238.5 L 316.5 237 Z " /><path fill="rgb(167,193,204)" stroke="rgb(167,193,204)" stroke-width="1" opacity="1" d="M 319.5 244 L 318.5 246 L 319.5 244 Z " /><path fill="rgb(167,193,204)" stroke="rgb(167,193,204)" stroke-width="1" opacity="1" d="M 321.5 248 L 323 250.5 L 321 249.5 L 321.5 248 Z " /><path fill="rgb(167,193,204)" stroke="rgb(167,193,204)" stroke-width="1" opacity="1" d="M 326.5 259 L 327 260.5 L 325 261.5 L 326.5 259 Z " /><path fill="rgb(167,193,204)" stroke="rgb(167,193,204)" stroke-width="1" opacity="1" d="M 327.5 262 L 326.5 264 L 327.5 262 Z " /><path fill="rgb(167,193,204)" stroke="rgb(167,193,204)" stroke-width="1" opacity="1" d="M 339.5 292 L 341 295.5 L 340 295.5 L 339.5 292 Z " /><path fill="rgb(167,193,204)" stroke="rgb(167,193,204)" stroke-width="1" opacity="1" d="M 346.5 308 L 348 311.5 L 345.5 315 L 345 313.5 L 347 310.5 L 346.5 308 Z " /><path fill="rgb(167,193,204)" stroke="rgb(167,193,204)" stroke-width="1" opacity="1" d="M 350.5 317 L 352 319.5 L 350 318.5 L 350.5 317 Z " /><path fill="rgb(167,193,204)" stroke="rgb(167,193,204)" stroke-width="1" opacity="1" d="M 355.5 328 L 356.5 330 L 355.5 328 Z " /><path fill="rgb(167,193,204)" stroke="rgb(167,193,204)" stroke-width="1" opacity="1" d="M 358.5 334 L 359.5 336 L 358.5 334 Z " /><path fill="rgb(167,193,204)" stroke="rgb(167,193,204)" stroke-width="1" opacity="1" d="M 362.5 341 L 363.5 343 L 362.5 341 Z " /><path fill="rgb(167,193,204)" stroke="rgb(167,193,204)" stroke-width="1" opacity="1" d="M 364.5 344 L 370 351.5 L 366 348.5 L 364.5 344 Z " /><path fill="rgb(167,193,204)" stroke="rgb(167,193,204)" stroke-width="1" opacity="1" d="M 369.5 353 L 372 354.5 L 370 355.5 L 370.5 354 L 369.5 353 Z " /><path fill="rgb(167,193,204)" stroke="rgb(167,193,204)" stroke-width="1" opacity="1" d="M 373.5 357 L 374.5 359 L 372 358.5 L 373.5 357 Z " /><path fill="rgb(167,193,204)" stroke="rgb(167,193,204)" stroke-width="1" opacity="1" d="M 376.5 361 L 388.5 374 L 383 370 L 380.5 366 Q 379.3 368.3 378 365.5 L 379 364.5 L 376.5 361 Z " /><path fill="rgb(167,193,204)" stroke="rgb(167,193,204)" stroke-width="1" opacity="1" d="M 390.5 374 L 392.5 377 L 390.5 374 Z " /><path fill="rgb(167,193,204)" stroke="rgb(167,193,204)" stroke-width="1" opacity="1" d="M 394.5 377 L 395.5 379 L 394.5 377 Z " /><path fill="rgb(167,193,204)" stroke="rgb(167,193,204)" stroke-width="1" opacity="1" d="M 397.5 379 L 398.5 381 L 397.5 380 L 395 381.5 L 397.5 379 Z " /><path fill="rgb(167,193,204)" stroke="rgb(167,193,204)" stroke-width="1" opacity="1" d="M 400.5 381 L 404 383.5 L 402.5 383 L 400.5 381 Z " /><path fill="rgb(167,193,204)" stroke="rgb(167,193,204)" stroke-width="1" opacity="1" d="M 405.5 384 L 408 385.5 L 406.5 386 L 405.5 384 Z " /><path fill="rgb(167,193,204)" stroke="rgb(167,193,204)" stroke-width="1" opacity="1" d="M 411.5 387 L 410.5 389 L 411.5 387 Z " /><path fill="rgb(167,193,204)" stroke="rgb(167,193,204)" stroke-width="1" opacity="1" d="M 434.5 395 L 437 395.5 L 434.5 396 L 434.5 395 Z " /><path fill="rgb(167,193,204)" stroke="rgb(167,193,204)" stroke-width="1" opacity="1" d="M 445.5 397 L 444.5 399 L 443 398.5 L 445.5 397 Z " /><path fill="rgb(167,193,204)" stroke="rgb(167,193,204)" stroke-width="1" opacity="1" d="M 449.5 398 L 452 398.5 L 449.5 399 L 449.5 398 Z " /><path fill="rgb(167,193,204)" stroke="rgb(167,193,204)" stroke-width="1" opacity="1" d="M 456.5 399 L 460 399.5 L 456.5 400 L 456.5 399 Z " /><path fill="rgb(167,193,204)" stroke="rgb(167,193,204)" stroke-width="1" opacity="1" d="M 464.5 400 L 471 400.5 L 464.5 401 L 464.5 400 Z " /><path fill="rgb(167,193,204)" stroke="rgb(167,193,204)" stroke-width="1" opacity="1" d="M 480.5 401 L 496 401.5 L 480.5 402 L 480.5 401 Z " /><path fill="rgb(167,193,204)" stroke="rgb(167,193,204)" stroke-width="1" opacity="1" d="M 536.5 401 L 540 401.5 L 536.5 402 L 536.5 401 Z " /><path fill="rgb(167,193,204)" stroke="rgb(167,193,204)" stroke-width="1" opacity="1" d="M 16.5 509 L 15.5 511 L 16.5 509 Z " /><path fill="rgb(167,193,204)" stroke="rgb(167,193,204)" stroke-width="1" opacity="1" d="M 0.5 558 L 6 560.5 L 4.5 561 L 0.5 559 L 0.5 558 Z " /><path fill="rgb(167,193,204)" stroke="rgb(167,193,204)" stroke-width="1" opacity="1" d="M 32.5 570 L 34.5 573 L 32 572 L 32.5 570 Z " /><path fill="rgb(167,193,204)" stroke="rgb(167,193,204)" stroke-width="1" opacity="1" d="M 79.5 589 L 83 590.5 L 81.5 591 L 79.5 589 Z " /><path fill="rgb(167,193,204)" stroke="rgb(167,193,204)" stroke-width="1" opacity="1" d="M 96.5 595 L 100 596.5 L 98.5 597 L 96.5 595 Z " /><path fill="rgb(167,193,204)" stroke="rgb(167,193,204)" stroke-width="1" opacity="1" d="M 111.5 599 L 112 601 L 110 600.5 L 111.5 599 Z " /><path fill="rgb(167,193,204)" stroke="rgb(167,193,204)" stroke-width="1" opacity="1" d="M 120.5 603 L 125 604.5 L 123.5 605 L 120.5 604 L 120.5 603 Z " /><path fill="rgb(167,193,204)" stroke="rgb(167,193,204)" stroke-width="1" opacity="1" d="M 151.5 610 Q 154.5 611.5 151.5 613 L 151.5 610 Z " /><path fill="rgb(167,193,204)" stroke="rgb(167,193,204)" stroke-width="1" opacity="1" d="M 181.5 619 L 180.5 621 L 181.5 619 Z " /><path fill="rgb(167,193,204)" stroke="rgb(167,193,204)" stroke-width="1" opacity="1" d="M 183.5 621 L 186 621.5 L 183.5 622 L 183.5 621 Z " /><path fill="rgb(167,193,204)" stroke="rgb(167,193,204)" stroke-width="1" opacity="1" d="M 187.5 622 L 192 623.5 L 190.5 624 L 187.5 623 L 187.5 622 Z " /><path fill="rgb(167,193,204)" stroke="rgb(167,193,204)" stroke-width="1" opacity="1" d="M 216.5 630 L 220 632.5 L 218.5 633 L 216 632 L 216.5 630 Z " /><path fill="rgb(167,193,204)" stroke="rgb(167,193,204)" stroke-width="1" opacity="1" d="M 224.5 634 L 228 635.5 L 226.5 636 L 224.5 634 Z " /><path fill="rgb(167,193,204)" stroke="rgb(167,193,204)" stroke-width="1" opacity="1" d="M 238.5 640 L 242 641.5 L 240.5 642 L 238.5 640 Z " /><path fill="rgb(167,193,204)" stroke="rgb(167,193,204)" stroke-width="1" opacity="1" d="M 245.5 643 L 246.5 645 L 245.5 643 Z " /><path fill="rgb(167,193,204)" stroke="rgb(167,193,204)" stroke-width="1" opacity="1" d="M 248.5 645 L 253 647.5 L 251.5 647 Q 247.8 646.8 248.5 645 Z " /><path fill="rgb(167,193,204)" stroke="rgb(167,193,204)" stroke-width="1" opacity="1" d="M 254.5 648 L 255.5 650 L 254.5 648 Z " /><path fill="rgb(167,193,204)" stroke="rgb(167,193,204)" stroke-width="1" opacity="1" d="M 260.5 652 L 263 652.5 Q 260.9 655.8 260.5 652 Z " /><path fill="rgb(167,193,204)" stroke="rgb(167,193,204)" stroke-width="1" opacity="1" d="M 264.5 654 L 274 662 L 283 673.5 L 280 671.5 L 266.5 657 L 264 655.5 L 264.5 654 Z " /><path fill="rgb(167,193,204)" stroke="rgb(167,193,204)" stroke-width="1" opacity="1" d="M 285.5 678 L 286.5 680 L 285.5 678 Z " /><path fill="rgb(167,193,204)" stroke="rgb(167,193,204)" stroke-width="1" opacity="1" d="M 289.5 685 L 291 688.5 L 290 688.5 L 289.5 685 Z " /><path fill="rgb(167,193,204)" stroke="rgb(167,193,204)" stroke-width="1" opacity="1" d="M 296.5 706 L 297 708.5 L 296 708.5 L 296.5 706 Z " /><path fill="rgb(167,193,204)" stroke="rgb(167,193,204)" stroke-width="1" opacity="1" d="M 297.5 711 L 298 713.5 L 297 713.5 L 297.5 711 Z " /><path fill="rgb(167,193,204)" stroke="rgb(167,193,204)" stroke-width="1" opacity="1" d="M 299.5 722 L 300 724.5 L 299 724.5 L 299.5 722 Z " /><path fill="rgb(167,193,204)" stroke="rgb(167,193,204)" stroke-width="1" opacity="1" d="M 300.5 730 L 301 734.5 L 300 734.5 L 300.5 730 Z " /><path fill="rgb(167,193,204)" stroke="rgb(167,193,204)" stroke-width="1" opacity="1" d="M 301.5 739 L 302 745.5 L 301 745.5 L 301.5 739 Z " /><path fill="rgb(167,193,204)" stroke="rgb(167,193,204)" stroke-width="1" opacity="1" d="M 302.5 753 L 303 761.5 L 302 761.5 L 302.5 753 Z " /><path fill="rgb(167,193,204)" stroke="rgb(167,193,204)" stroke-width="1" opacity="1" d="M 303.5 768 L 304 775.5 L 303 775.5 L 303.5 768 Z " /><path fill="rgb(167,193,204)" stroke="rgb(167,193,204)" stroke-width="1" opacity="1" d="M 304.5 784 L 305 788.5 L 304 788.5 L 304.5 784 Z " /><path fill="rgb(167,193,204)" stroke="rgb(167,193,204)" stroke-width="1" opacity="1" d="M 305.5 795 L 306 798.5 L 305 798.5 L 305.5 795 Z " /><path fill="rgb(167,193,204)" stroke="rgb(167,193,204)" stroke-width="1" opacity="1" d="M 306.5 804 L 307 806.5 L 306 806.5 L 306.5 804 Z " /><path fill="rgb(167,193,204)" stroke="rgb(167,193,204)" stroke-width="1" opacity="1" d="M 308.5 817 L 309 819.5 L 308 819.5 L 308.5 817 Z " /><path fill="rgb(167,193,204)" stroke="rgb(167,193,204)" stroke-width="1" opacity="1" d="M 310.5 826 L 311 828.5 L 310 828.5 L 310.5 826 Z " /><path fill="rgb(167,193,204)" stroke="rgb(167,193,204)" stroke-width="1" opacity="1" d="M 318.5 847 L 319 848.5 L 317 849.5 L 318.5 847 Z " /><path fill="rgb(167,193,204)" stroke="rgb(167,193,204)" stroke-width="1" opacity="1" d="M 328.5 872 L 331 875.5 L 329 874.5 L 328.5 872 Z " /><path fill="rgb(167,193,204)" stroke="rgb(167,193,204)" stroke-width="1" opacity="1" d="M 335.5 872 L 335 873.5 L 334.5 875 L 334 873.5 L 335.5 872 Z " /><path fill="rgb(167,193,204)" stroke="rgb(167,193,204)" stroke-width="1" opacity="1" d="M 332.5 876 L 331.5 878 L 332.5 876 Z " /><path fill="rgb(167,193,204)" stroke="rgb(167,193,204)" stroke-width="1" opacity="1" d="M 333.5 880 L 336 883.5 L 334 882.5 L 333.5 880 Z " /><path fill="rgb(167,193,204)" stroke="rgb(167,193,204)" stroke-width="1" opacity="1" d="M 336.5 885 Q 339.1 884.2 338 887.5 L 339.5 890 L 336.5 885 Z " /><path fill="rgb(167,193,204)" stroke="rgb(167,193,204)" stroke-width="1" opacity="1" d="M 340.5 891 L 341.5 893 L 340.5 891 Z " /><path fill="rgb(167,193,204)" stroke="rgb(167,193,204)" stroke-width="1" opacity="1" d="M 342.5 894 L 346 896 L 346 898.5 L 352 905.5 L 348 902.5 L 342.5 894 Z " /><path fill="rgb(167,193,204)" stroke="rgb(167,193,204)" stroke-width="1" opacity="1" d="M 353.5 908 L 357 910.5 L 355.5 911 L 353.5 908 Z " /><path fill="rgb(167,193,204)" stroke="rgb(167,193,204)" stroke-width="1" opacity="1" d="M 358.5 911 Q 361.2 912.3 359 913.5 L 364 919.5 L 357 913.5 L 359 912.5 L 358.5 911 Z " /><path fill="rgb(167,193,204)" stroke="rgb(167,193,204)" stroke-width="1" opacity="1" d="M 365.5 921 L 374 930.5 L 365 922.5 L 365.5 921 Z " /><path fill="rgb(167,193,204)" stroke="rgb(167,193,204)" stroke-width="1" opacity="1" d="M 376.5 934 Q 378.8 933.3 378 935.5 L 376.5 934 Z " /><path fill="rgb(167,193,204)" stroke="rgb(167,193,204)" stroke-width="1" opacity="1" d="M 380.5 938 L 401.5 960 L 380.5 938 Z " /><path fill="rgb(34,40,45)" stroke="rgb(34,40,45)" stroke-width="1" opacity="1" d="M 311.5 0 L 540 0 L 540 229 L 500.5 229 L 499.5 228 L 491.5 228 L 476.5 225 L 457.5 216 L 445 204.5 L 433 184.5 Q 435.5 183 432 181.5 L 429 175.5 L 429.5 174 Q 426.9 174.8 428 171.5 L 419 151.5 L 419.5 150 Q 416.9 150.8 418 147.5 L 410 129 Q 407.3 130.1 408 127.5 L 402 117 Q 399.3 118.1 400 115.5 L 382.5 97 L 377.5 93 L 364 80.5 Q 346.6 61.9 333 39.5 L 315 8.5 L 311.5 0 Z " /><path fill="rgb(34,40,45)" stroke="rgb(34,40,45)" stroke-width="1" opacity="1" d="M 0 731 L 34.5 744 L 36.5 746 L 45.5 748 L 62.5 755 L 123.5 772 L 125.5 774 L 128.5 774 L 143.5 781 L 158 792.5 L 160 795.5 L 167 807.5 Q 164.5 809 168 810.5 L 171 822.5 L 172 839.5 L 173 840.5 L 174 868.5 L 178 888.5 L 189 913.5 L 200 930 Q 202.7 928.9 202 931.5 L 208.5 939 Q 210.8 938.3 210 940.5 L 222 952.5 L 222 954 L 229 959.5 L 0 960 L 0 731 Z " /><path fill="rgb(108,127,135)" stroke="rgb(108,127,135)" stroke-width="1" opacity="1" d="M 196.5 0 L 252.5 0 L 255 2.5 Q 273 38.5 295 70.5 Q 310.8 93.8 331.5 112 L 347 125 L 347 127 L 349 127 Q 347.9 129.7 350.5 129 Q 365 143 376 160.5 L 385 178.5 L 400 217.5 L 410 238.5 Q 419.3 256.7 434.5 269 L 455.5 280 L 475.5 285 L 492.5 286 L 493.5 287 L 540 287 L 540 344 L 481.5 344 L 480.5 343 L 472.5 343 L 471.5 342 L 464.5 342 L 448.5 339 L 431.5 333 Q 411.1 323.9 398 307.5 Q 384.4 289.6 375 267.5 L 355 216.5 L 343 192.5 Q 326.8 166.7 304.5 147 L 301.5 145 L 270 114.5 L 248 87.5 L 232 63.5 L 196.5 0 Z " /><path fill="rgb(108,127,135)" stroke="rgb(108,127,135)" stroke-width="1" opacity="1" d="M 0 616 L 36.5 631 L 90.5 651 L 133.5 664 L 159.5 670 L 195.5 682 L 221.5 695 L 239 710.5 L 250 728.5 L 255 746.5 L 257 765.5 L 258 766.5 L 258 777.5 L 259 778.5 L 261 819.5 L 262 820.5 L 263 834.5 L 268 855.5 L 281 885.5 L 294 906 Q 296.7 904.9 296 907.5 L 313 928.5 L 337 952.5 L 337 954 L 344 959.5 L 286.5 960 Q 264 939 245 914.5 L 228 885.5 L 222 868.5 L 219 854.5 L 218 837.5 L 217 836.5 L 217 824.5 L 216 823.5 L 215 797.5 L 210 771.5 Q 204.5 754 191.5 744 Q 176.8 732.7 157.5 726 L 71.5 701 L 28.5 685 L 0 672.5 L 0 616 Z " /></svg>